<svg width="800" height="800" viewBox="0 0 800 800" fill="none" xmlns="http://www.w3.org/2000/svg">
<style xmlns="http://www.w3.org/2000/svg">
@keyframes flutter {
    0 {
        transform: rotateX(0);
    }
    100% {
        transform: translateY(60px) rotateX(80deg);
    }
}

.wing {
    transform-origin: center center;
    animation: flutter 100ms alternate infinite;
}
.bee {
    transform: rotate(-30deg);
    transform-origin: center
}
</style>
<g class="bee">
<path d="M554.174 528.479C553.387 519.238 559.081 510.937 567.485 508.078L708.571 454.884C718.791 451.031 730.201 456.194 734.054 466.413C737.913 476.631 732.746 488.043 722.526 491.896L580.869 545.305C579.167 545.945 577.382 546.349 575.57 546.504C564.684 547.432 555.101 539.362 554.174 528.479Z" fill="black"/>
<path d="M556.193 542.467C554.595 541.685 553.074 540.669 551.682 539.422C543.549 532.133 542.867 519.628 550.156 511.495L651.219 398.749C658.509 390.616 671.011 389.925 679.147 397.224C687.28 404.512 687.962 417.017 680.673 425.15L579.61 537.896C573.566 544.638 563.944 546.262 556.193 542.467Z" fill="black"/>
<path d="M631.998 523.083C639.974 538.775 644.461 556.532 644.487 575.339C644.576 639.395 592.715 691.401 528.638 691.49C483.865 691.552 444.993 666.229 425.613 629.117C417.253 613.132 412.514 594.943 412.487 575.661C412.461 556.425 417.102 538.291 425.374 522.306C444.627 485.051 483.496 459.552 528.314 459.49C573.588 459.423 612.822 485.29 631.998 523.083Z" fill="#F0C419"/>
<ellipse cx="269.418" cy="575.869" rx="209" ry="150.5" fill="#666666"/>
<path d="M310.418 428.264C297.16 426.365 283.451 425.369 269.418 425.369C253.614 425.369 238.219 426.633 223.418 429.026V722.712C238.219 725.106 253.614 726.369 269.418 726.369C283.451 726.369 297.16 725.374 310.418 723.475V428.264Z" fill="#F0C419"/>
<path d="M386.418 700.595C441.93 673.54 478.418 627.773 478.418 575.869C478.418 523.966 441.93 478.199 386.418 451.144V700.595Z" fill="#F0C419"/>
<path d="M60.418 575.869C60.418 525.54 94.7251 480.982 147.418 453.658V698.081C94.7251 670.757 60.418 626.198 60.418 575.869Z" fill="#F0C419"/>
<g class="wing">
<path d="M329.848 498.619C301.833 502.99 277.746 494.5 259.595 476.431C230.273 447.241 216.39 393.096 226.297 327.779C227.22 321.694 228.325 315.65 229.613 309.648L229.627 309.633C233.211 292.858 238.167 276.498 244.271 260.836C273.956 184.482 330.667 124.429 387.929 115.49C461.169 104.039 507.52 180.542 491.481 286.33C476.6 384.535 413.171 473.482 345.575 494.906C340.345 496.539 335.104 497.795 329.848 498.619Z" fill="#fff"/>
<path d="M271.154 239.673C216.071 164.329 140.363 145.454 102.061 197.552C72.0906 238.293 73.9055 310.389 102.503 375.933C108.488 389.691 115.681 403.174 124.013 416.004C126.699 420.165 129.521 424.275 132.466 428.298C166.473 474.821 208.343 499.808 244.432 499.858C266.773 499.889 286.902 490.342 301.558 470.42C304.307 466.679 306.779 462.681 309.01 458.458C337.69 403.655 322.294 309.614 271.154 239.673Z" fill="#fff"/>
</g>
</g>
</svg>
