<svg width="800" height="800" viewBox="0 0 800 800" fill="none" xmlns="http://www.w3.org/2000/svg">
<path d="M353.98 260.251C344.705 260.251 336.917 253.873 334.781 245.258L293.751 100.166C290.779 89.6566 296.892 78.7253 307.401 75.7534C317.909 72.7753 328.842 78.8925 331.814 89.402L373.009 235.081C373.503 236.831 373.755 238.643 373.755 240.462C373.756 251.387 364.902 260.251 353.98 260.251Z" fill="black"/>
<path d="M446.664 260.267C444.885 260.267 443.072 260.023 441.274 259.515C430.764 256.545 424.653 245.614 427.624 235.104L468.819 89.405C471.791 78.894 482.716 72.7767 493.232 75.7549C503.741 78.7252 509.852 89.6565 506.882 100.166L465.686 245.865C463.222 254.578 455.294 260.267 446.664 260.267Z" fill="black"/>
<path d="M495.9 588.027L495.425 588.758H302.913H302.893C288.476 598.054 273.385 606.083 257.979 612.807V612.827C262.982 631.852 269.844 649.613 278.269 665.632L280.504 665.415H519.255L521.51 665.593C529.935 649.554 536.818 631.794 541.801 612.747C526.041 605.866 510.594 597.599 495.9 588.027Z" fill="#666666"/>
<path d="M519.256 665.415L521.511 665.593C493.961 717.964 449.72 751.901 399.881 751.901C350.041 751.901 305.819 717.964 278.271 665.632L280.505 665.415H519.256Z" fill="#F0C419"/>
<path d="M495.9 588.027L495.425 588.758H302.913C308.076 585.436 313.138 581.955 318.102 578.316C371.382 539.256 399.961 491.217 399.961 449.843C399.961 491.217 428.539 539.256 481.819 578.316C486.427 581.697 491.133 584.941 495.9 588.027Z" fill="#F0C419"/>
<path d="M347.737 180.416C363.44 172.463 381.203 168 400.011 168C464.066 168 516 219.933 516 284.011C516 328.784 490.623 367.62 453.484 386.948C437.488 395.287 419.292 400 400.011 400C380.774 400 362.647 395.333 346.673 387.039C309.445 367.735 284 328.83 284 284.013C283.996 238.739 309.918 199.54 347.737 180.416Z" fill="#F0C419"/>
<path d="M366.121 384.399C388.983 401.169 399.96 424.23 399.96 449.842C399.96 491.215 371.382 539.255 318.102 578.314C313.137 581.953 308.075 585.435 302.912 588.756H302.892C288.475 598.052 273.384 606.082 257.978 612.805C182.923 645.635 100.353 647.811 53.6187 613.536C-6.16756 569.709 15.3497 482.887 101.638 419.62C181.735 360.882 289.522 343.082 352.394 375.872C357.241 378.427 361.828 381.255 366.121 384.399Z" fill="#fff"/>
<path d="M698.28 419.623C784.568 482.89 806.086 569.713 746.299 613.539C699.546 647.833 616.897 645.638 541.803 612.749C526.04 605.866 510.595 597.599 495.9 588.027C491.134 584.941 486.426 581.699 481.818 578.316C428.538 539.256 399.96 491.217 399.96 449.843C399.96 424.232 410.937 401.171 433.799 384.401C438.091 381.255 442.679 378.427 447.524 375.877C510.397 343.085 618.182 360.885 698.28 419.623Z" fill="#fff"/>
<path fill-rule="evenodd" clip-rule="evenodd" d="M418.495 398.533C412.475 399.498 406.301 400 400.011 400C393.679 400 387.469 399.494 381.415 398.521C393.902 413.198 399.96 430.816 399.96 449.841L399.959 450H399.96C399.96 449.948 399.96 449.895 399.96 449.843C399.96 430.822 406.014 413.208 418.495 398.533Z" fill="#666666"/>
</svg>
