<svg width="800" height="800" viewBox="0 0 800 800" fill="none" xmlns="http://www.w3.org/2000/svg">
<style xmlns="http://www.w3.org/2000/svg">
    @keyframes flutter {
        from {
            transform: rotateX(0);
        }
        to {
            transform: rotateX(80deg);
        }
    }

    .wing {
        transform-origin: center center;
        animation: flutter 150ms alternate infinite;
    }
</style>
<g class="wing">
<path d="M654.144 778.087C654.144 778.087 455.803 808.672 352.889 705.299C323.1 675.379 304.587 637.524 293.292 598.833C271.78 506.562 273.179 403.155 273.179 403.155L273.093 402.127C285.292 401.109 296.727 400.886 306.743 401.05C318.162 400.171 332.931 399.441 349.862 399.479C417 399.628 518.432 411.96 582.696 476.511C685.609 579.883 654.144 778.087 654.144 778.087Z" fill="#F0C419"/>
<path d="M179.33 640.454C138.299 643.732 103.929 609.208 107.389 568.193C110.685 528.825 122.155 481.321 154.739 448.862C187.006 416.738 233.941 405.391 273.092 402.126L273.178 403.154C273.178 403.154 271.779 506.56 293.291 598.832C260.998 627.302 216.513 637.504 179.33 640.454Z" fill="#F0C419"/>
<path d="M294.176 199.874C272.254 292.049 273.195 395.461 273.195 395.461L273.104 396.488C233.968 393.052 187.101 381.495 154.96 349.228C122.519 316.625 111.26 269.07 108.14 229.688C104.862 188.657 139.385 154.287 180.401 157.747C217.57 160.86 262.01 171.261 294.176 199.874Z" fill="#F0C419"/>
<path d="M349.861 399.479C332.93 399.441 318.164 398.646 306.749 397.716C296.732 397.836 285.298 397.562 273.104 396.49L273.195 395.462C273.195 395.462 272.254 292.05 294.176 199.875C305.643 161.235 324.323 123.462 354.244 93.6742C457.616 -9.24027 655.82 22.2245 655.82 22.2245C655.82 22.2245 686.405 220.566 583.033 323.48C518.484 387.743 416.998 399.628 349.861 399.479Z" fill="#F0C419"/>
</g>
<path d="M115.513 398.909C115.535 388.97 122.785 380.925 131.706 380.945L559.399 381.894C568.319 381.914 575.534 389.991 575.512 399.93C575.49 409.869 568.24 417.914 559.319 417.894L131.626 416.945C122.705 416.925 115.491 408.85 115.513 398.909Z" fill="black"/>
<path d="M537.501 400.314C537.523 390.525 545.478 382.603 555.269 382.625C611.965 382.751 658.195 336.725 658.321 280.029L658.324 278.841C658.346 269.052 666.301 261.131 676.091 261.153C685.882 261.174 693.802 269.131 693.78 278.92L693.777 280.107C693.608 356.357 631.438 418.25 555.19 418.081C545.399 418.06 537.479 410.104 537.501 400.314Z" fill="black"/>
<path d="M537.502 400.314C537.524 390.525 545.479 382.603 555.269 382.625C631.517 382.794 693.412 444.963 693.243 521.212L693.24 522.4C693.219 532.189 685.264 540.11 675.473 540.088C665.682 540.067 657.763 532.11 657.784 522.321L657.787 521.134C657.913 464.437 611.887 418.207 555.191 418.081C545.4 418.059 537.48 410.104 537.502 400.314Z" fill="black"/>
</svg>
