<svg width="800" height="800" viewBox="0 0 800 800" fill="none" xmlns="http://www.w3.org/2000/svg">
<path d="M641.403 635.647C644.771 676.671 610.325 711.118 569.301 707.749C529.926 704.539 482.397 693.175 449.866 660.663C417.67 628.468 406.219 581.558 402.867 542.415L403.895 542.326C403.895 542.326 507.304 543.496 599.528 521.779C628.07 554.008 638.37 598.471 641.403 635.647Z" fill="#F0C419"/>
<path d="M200.57 521.779C292.793 543.496 396.202 542.326 396.202 542.326L397.23 542.415C393.88 581.558 382.427 628.451 350.232 660.663C317.701 693.177 270.171 704.541 230.796 707.749C189.773 711.118 155.326 676.671 158.695 635.647C161.726 598.471 172.028 554.008 200.57 521.779Z" fill="#F0C419"/>
<path d="M400.05 465.65C400.05 482.582 399.287 497.349 398.382 508.766C398.525 518.783 398.276 530.217 397.231 542.414L396.203 542.325C396.203 542.325 292.794 543.496 200.57 521.778C161.905 510.397 124.091 491.8 94.2362 461.946C-8.90739 358.802 22.1175 160.529 22.1175 160.529C22.1175 160.529 220.391 129.504 323.534 232.648C387.94 297.054 400.05 398.513 400.05 465.65Z" fill="#F0C419"/>
<path d="M777.982 160.528C777.982 160.528 809.007 358.801 705.863 461.944C676.009 491.799 638.195 510.396 599.529 521.777C507.306 543.494 403.897 542.324 403.897 542.324L402.869 542.413C401.823 530.216 401.575 518.782 401.717 508.765C400.812 497.347 400.05 482.58 400.05 465.649C400.05 398.512 412.158 297.053 476.565 232.645C579.709 129.503 777.982 160.528 777.982 160.528Z" fill="#F0C419"/>
<path d="M400 700C390.061 700 382 692.768 382 683.847V256.153C382 247.232 390.061 240 400 240C409.939 240 418 247.232 418 256.153V683.847C418 692.768 409.941 700 400 700Z" fill="black"/>
<path d="M400.468 278.009C390.679 278.009 382.74 270.072 382.74 260.281C382.74 203.584 336.612 157.456 279.916 157.456H278.728C268.939 157.456 261 149.519 261 139.728C261 129.937 268.939 122 278.728 122H279.916C356.165 122 418.197 184.033 418.197 260.281C418.197 270.072 410.259 278.009 400.468 278.009Z" fill="black"/>
<path d="M400.468 278.009C390.679 278.009 382.74 270.072 382.74 260.281C382.74 184.033 444.771 122 521.021 122H522.209C531.998 122 539.937 129.937 539.937 139.728C539.937 149.519 531.998 157.456 522.209 157.456H521.021C464.324 157.456 418.196 203.584 418.196 260.281C418.196 270.072 410.259 278.009 400.468 278.009Z" fill="black"/>
</svg>
