<svg width="800" height="800" viewBox="0 0 800 800" fill="none" xmlns="http://www.w3.org/2000/svg">
<g clip-path="url(#clip0_158_191)">
<path d="M500.279 0.724646C477.634 5.53362 454.994 25.5775 437.207 56.6789C405.604 112.014 389.871 198.177 392.814 300.748C393.154 314.135 393.703 327.041 393.908 329.379C394.182 332.399 394.115 333.7 393.567 333.7C393.154 333.7 392.814 333.014 392.814 332.123C392.814 326.148 383.854 276.652 378.79 254.269C351.43 134.671 299.51 49.471 242.667 30.9334C236.852 29.0107 234.526 28.6706 227.275 28.3929C220.914 28.1194 217.562 28.3249 214.142 29.1495C202.035 31.9649 191.295 40.8207 185.344 52.9042C165.438 93.271 184.592 162.41 235.69 234.154C259.562 267.724 288.84 300.887 322.358 332.602C330.429 340.225 338.98 348.187 341.305 350.248C345.41 353.887 346.299 354.985 344.999 354.985C344.658 354.985 338.569 350.798 331.455 345.649C241.777 280.493 157.913 243.49 91.4246 239.716C48.2618 237.31 16.2483 249.393 4.75615 272.462C-5.29911 292.645 1.61032 316.126 24.0462 338.509C35.8798 350.315 50.5191 360.202 70.2881 369.816C94.7759 381.69 121.59 390.34 154.083 396.794C177.956 401.531 195.467 403.732 232.063 406.614C243.898 407.506 310.66 407.78 318.8 406.887C322.837 406.475 323.726 406.543 323.726 407.368C323.726 408.053 321.674 408.671 316.065 409.496C302.795 411.557 275.501 416.636 260.862 419.863C155.382 443.138 76.2383 484.331 42.9267 533.488C38.0691 540.628 32.187 552.711 30.2712 559.576C28.1513 566.923 27.6724 578.457 29.1772 585.254C35.0593 611.548 63.4467 625.897 102.164 622.053C150.253 617.315 210.38 586.832 269.686 537.264C289.319 520.855 298.142 512.617 322.905 487.694C336.517 473.964 347.462 463.459 348.009 463.597C348.694 463.734 346.367 467.58 340.758 475.475C288.155 549.828 256.69 614.843 244.376 674.574C238.835 701.212 238.152 729.086 242.394 748.857C248.276 776.183 262.299 793.964 282 798.907C291.302 801.241 304.435 799.318 315.038 793.964C329.54 786.618 344.315 772.337 356.972 753.183C380.23 718.17 396.51 665.304 403.689 601.799C406.837 574.131 407.452 561.087 407.52 520.992C407.52 491.883 407.726 482.615 408.341 482.408C409.368 481.997 409.575 482.683 411.216 492.981C431.122 617.727 475.857 715.629 531.128 755.38C554.797 772.475 578.943 776.663 596.66 766.777C619.916 753.801 628.332 720.229 618.889 678.075C604.524 613.813 552.949 537.675 472.984 462.567C464.434 454.534 460.055 449.935 460.468 449.522C460.876 449.112 465.322 451.858 472.984 457.35C552.743 514.677 626.619 549.073 690.03 558.478C727.175 563.97 759.325 559.233 779.845 545.297C788.602 539.323 796.332 528.751 798.795 519.344C800.367 513.647 800.23 503.554 798.522 497.032C795.373 484.88 788.67 474.17 776.562 462.086C764.112 449.592 750.841 440.39 731.757 430.915C672.451 401.531 583.798 388.215 480.575 393.227C474.285 393.5 471.481 393.432 471.481 392.881C471.481 392.469 473.258 391.922 475.447 391.716C477.566 391.443 487.35 389.86 497.13 388.215C596.66 371.461 673.887 342.009 723.756 301.846C761.514 271.503 779.093 236.282 769.723 209.71C766.233 199.62 757.477 190.213 746.875 185.066C711.784 167.9 654.529 180.123 592.555 217.88C545.766 246.443 495.83 289.763 445.484 345.578C440.49 351.14 441.656 348.599 448.018 340.088C511.907 255.023 551.172 171.814 559.446 104.188C560.952 91.7606 561.02 70.1382 559.517 59.7706C555.067 29.0787 542.002 9.24031 521.621 2.02962C517.104 0.383132 505.202 -0.305451 500.279 0.724646Z" fill="white"/>
<path d="M347.737 296.416C363.44 288.463 381.203 284 400.011 284C464.066 284 516 335.933 516 400.011C516 444.784 490.623 483.62 453.484 502.948C437.488 511.287 419.292 516 400.011 516C380.774 516 362.647 511.333 346.673 503.039C309.445 483.735 284 444.83 284 400.013C283.996 354.739 309.918 315.54 347.737 296.416Z" fill="#F0C419"/>
</g>
<defs>
<clipPath id="clip0_158_191">
<rect width="800" height="800" fill="white"/>
</clipPath>
</defs>
</svg>
