<svg width="1400" height="980" viewBox="0 0 1400 980" fill="none" xmlns="http://www.w3.org/2000/svg">
<g clip-path="url(#clip0_132_1405)">
<g opacity="0.4">
<path d="M858.201 685.6C859.701 685.1 860.601 684.5 860.401 684.1C860.101 683.7 858.701 683.7 857.101 684C857.801 683 857.901 682.1 857.201 681.9C856.601 681.7 855.501 682.2 854.601 683.2C854.201 682.2 853.301 681.5 852.601 681.5C851.901 681.6 851.601 682.5 851.801 683.5C850.401 682.9 849.101 682.7 848.601 683C848.201 683.3 848.801 684.1 850.001 684.9C848.301 685 847.101 685.3 847.101 685.8C847.101 686.2 848.401 686.6 850.101 686.7C848.901 687.6 848.301 688.5 848.901 688.8C849.501 689.1 851.001 688.7 852.301 687.8L852.401 687.7C852.101 688.8 852.301 689.8 853.101 689.9C853.801 690 854.601 689.3 855.101 688.3C855.901 689.2 857.001 689.8 857.701 689.6C858.401 689.4 858.301 688.4 857.501 687.3C859.101 687.5 860.501 687.4 860.701 687C860.901 686.5 859.801 685.9 858.201 685.6Z" fill="white"/>
<path d="M854.6 687.2C855.815 687.2 856.8 686.573 856.8 685.8C856.8 685.027 855.815 684.4 854.6 684.4C853.385 684.4 852.4 685.027 852.4 685.8C852.4 686.573 853.385 687.2 854.6 687.2Z" fill="#DFD133"/>
<path d="M918.1 704.8C919.6 704.3 920.5 703.7 920.3 703.3C920 702.9 918.6 702.9 917 703.2C917.7 702.2 917.8 701.3 917.1 701.1C916.5 700.9 915.4 701.4 914.5 702.4C914.1 701.4 913.2 700.7 912.5 700.7C911.8 700.8 911.5 701.7 911.7 702.7C910.3 702.1 909 701.9 908.5 702.2C908.1 702.5 908.7 703.3 909.9 704.1C908.2 704.2 907 704.5 907 705C907 705.4 908.3 705.8 910 705.9C908.8 706.8 908.2 707.7 908.8 708C909.4 708.3 910.9 707.9 912.2 707L912.3 706.9C912 708 912.2 709 913 709.1C913.7 709.2 914.5 708.5 915 707.5C915.8 708.4 916.9 709 917.6 708.8C918.3 708.6 918.2 707.6 917.4 706.5C919 706.7 920.4 706.6 920.6 706.2C920.7 705.7 919.6 705.2 918.1 704.8Z" fill="white"/>
<path d="M914.4 706.5C915.615 706.5 916.6 705.873 916.6 705.1C916.6 704.326 915.615 703.7 914.4 703.7C913.185 703.7 912.2 704.326 912.2 705.1C912.2 705.873 913.185 706.5 914.4 706.5Z" fill="#DFD133"/>
<path d="M1103.3 652.8C1104.8 652.3 1105.7 651.7 1105.5 651.3C1105.2 650.9 1103.8 650.9 1102.2 651.2C1102.9 650.2 1103 649.3 1102.3 649.1C1101.7 648.9 1100.6 649.4 1099.7 650.4C1099.3 649.4 1098.4 648.7 1097.7 648.7C1097 648.8 1096.7 649.7 1096.9 650.7C1095.5 650.1 1094.2 649.9 1093.7 650.2C1093.3 650.5 1093.9 651.3 1095.1 652.1C1093.4 652.2 1092.2 652.5 1092.2 653C1092.2 653.4 1093.5 653.8 1095.2 653.9C1094 654.8 1093.4 655.7 1094 656C1094.6 656.3 1096.1 655.9 1097.4 655L1097.5 654.9C1097.2 656 1097.4 657 1098.2 657.1C1098.9 657.2 1099.7 656.5 1100.2 655.5C1101 656.4 1102.1 657 1102.8 656.8C1103.5 656.6 1103.4 655.6 1102.6 654.5C1104.2 654.7 1105.6 654.6 1105.8 654.2C1106 653.7 1104.9 653.1 1103.3 652.8Z" fill="white"/>
<path d="M1099.7 654.4C1100.91 654.4 1101.9 653.773 1101.9 653C1101.9 652.226 1100.91 651.6 1099.7 651.6C1098.48 651.6 1097.5 652.226 1097.5 653C1097.5 653.773 1098.48 654.4 1099.7 654.4Z" fill="#DFD133"/>
<path d="M1062.1 674.7C1063.2 674.4 1063.9 673.9 1063.7 673.6C1063.5 673.3 1062.5 673.3 1061.3 673.6C1061.8 672.9 1061.8 672.3 1061.4 672.1C1060.9 672 1060.1 672.4 1059.5 673C1059.2 672.3 1058.6 671.7 1058.1 671.8C1057.6 671.9 1057.4 672.5 1057.6 673.3C1056.6 672.9 1055.6 672.7 1055.3 672.9C1055 673.2 1055.4 673.7 1056.3 674.2C1055.1 674.2 1054.2 674.5 1054.2 674.8C1054.2 675.1 1055.1 675.4 1056.4 675.4C1055.5 676 1055.1 676.7 1055.5 676.9C1055.9 677.1 1057 676.8 1057.9 676.2C1057.9 676.2 1058 676.2 1058 676.1C1057.7 676.9 1058 677.6 1058.5 677.7C1059 677.8 1059.6 677.3 1059.9 676.5C1060.5 677.2 1061.3 677.6 1061.7 677.4C1062.2 677.2 1062.1 676.5 1061.5 675.8C1062.7 676 1063.7 675.9 1063.8 675.6C1064 675.3 1063.2 674.9 1062.1 674.7Z" fill="white"/>
<path d="M1059.4 675.9C1060.28 675.9 1061 675.452 1061 674.9C1061 674.348 1060.28 673.9 1059.4 673.9C1058.52 673.9 1057.8 674.348 1057.8 674.9C1057.8 675.452 1058.52 675.9 1059.4 675.9Z" fill="#DFD133"/>
<path d="M1016.6 666.3C1017.7 666 1018.4 665.5 1018.2 665.2C1018 664.9 1017 664.9 1015.8 665.2C1016.3 664.5 1016.3 663.9 1015.9 663.7C1015.4 663.6 1014.6 664 1014 664.6C1013.7 663.9 1013.1 663.3 1012.6 663.4C1012.1 663.5 1011.9 664.1 1012.1 664.9C1011.1 664.5 1010.1 664.3 1009.8 664.5C1009.5 664.8 1009.9 665.3 1010.8 665.8C1009.6 665.8 1008.7 666.1 1008.7 666.4C1008.7 666.7 1009.6 667 1010.9 667C1010 667.6 1009.6 668.3 1010 668.5C1010.4 668.7 1011.5 668.4 1012.4 667.8C1012.4 667.8 1012.5 667.8 1012.5 667.7C1012.2 668.5 1012.5 669.2 1013 669.3C1013.5 669.4 1014.1 668.9 1014.4 668.1C1015 668.8 1015.8 669.2 1016.2 669C1016.7 668.8 1016.6 668.1 1016 667.4C1017.2 667.6 1018.2 667.5 1018.3 667.2C1018.5 666.9 1017.7 666.5 1016.6 666.3Z" fill="white"/>
<path d="M1014 667.4C1014.88 667.4 1015.6 666.952 1015.6 666.4C1015.6 665.848 1014.88 665.4 1014 665.4C1013.12 665.4 1012.4 665.848 1012.4 666.4C1012.4 666.952 1013.12 667.4 1014 667.4Z" fill="#DFD133"/>
<path d="M984.001 673.8C985.101 673.5 985.801 673 985.601 672.7C985.401 672.4 984.401 672.4 983.201 672.7C983.701 672 983.701 671.4 983.301 671.2C982.801 671.1 982.001 671.5 981.401 672.1C981.101 671.4 980.501 670.8 980.001 670.9C979.501 671 979.301 671.6 979.501 672.4C978.501 672 977.501 671.8 977.201 672C976.901 672.3 977.301 672.8 978.201 673.3C977.001 673.3 976.101 673.6 976.101 673.9C976.101 674.2 977.001 674.5 978.301 674.5C977.401 675.1 977.001 675.8 977.401 676C977.801 676.2 978.901 675.9 979.801 675.3C979.801 675.3 979.901 675.3 979.901 675.2C979.601 676 979.901 676.7 980.401 676.8C980.901 676.9 981.501 676.4 981.801 675.6C982.401 676.3 983.201 676.7 983.601 676.5C984.101 676.3 984.001 675.6 983.401 674.9C984.601 675.1 985.601 675 985.701 674.7C985.901 674.4 985.101 674 984.001 673.8Z" fill="white"/>
<path d="M981.401 674.9C982.284 674.9 983.001 674.452 983.001 673.9C983.001 673.348 982.284 672.9 981.401 672.9C980.517 672.9 979.801 673.348 979.801 673.9C979.801 674.452 980.517 674.9 981.401 674.9Z" fill="#DFD133"/>
<path d="M830 693.4C830.8 693.1 831.4 692.8 831.2 692.5C831 692.3 830.3 692.3 829.4 692.5C829.8 692 829.8 691.5 829.5 691.4C829.2 691.3 828.5 691.6 828.1 692.1C827.9 691.5 827.4 691.1 827 691.2C826.6 691.3 826.4 691.7 826.6 692.3C825.8 692 825.1 691.8 824.8 692C824.6 692.2 824.9 692.6 825.6 693C824.7 693 824 693.2 824 693.5C824 693.7 824.7 694 825.7 694C825 694.5 824.7 695 825 695.2C825.3 695.4 826.1 695.1 826.9 694.7C826.9 694.7 826.9 694.7 827 694.7C826.8 695.3 827 695.9 827.4 695.9C827.8 696 828.3 695.6 828.5 695C829 695.5 829.6 695.8 829.9 695.7C830.3 695.6 830.2 695 829.8 694.4C830.7 694.5 831.5 694.5 831.6 694.2C831.5 693.9 830.9 693.6 830 693.4Z" fill="white"/>
<path d="M828 694.3C828.663 694.3 829.2 693.942 829.2 693.5C829.2 693.058 828.663 692.7 828 692.7C827.337 692.7 826.8 693.058 826.8 693.5C826.8 693.942 827.337 694.3 828 694.3Z" fill="#DFD133"/>
<path d="M1042.9 683.3C1043.7 683 1044.3 682.7 1044.1 682.4C1043.9 682.2 1043.2 682.2 1042.3 682.4C1042.7 681.9 1042.7 681.4 1042.4 681.3C1042.1 681.2 1041.4 681.5 1041 682C1040.8 681.4 1040.3 681 1039.9 681.1C1039.5 681.2 1039.3 681.6 1039.5 682.2C1038.7 681.9 1038 681.7 1037.7 681.9C1037.5 682.1 1037.8 682.5 1038.5 682.9C1037.6 682.9 1036.9 683.1 1036.9 683.4C1036.9 683.6 1037.6 683.9 1038.6 683.9C1037.9 684.4 1037.6 684.9 1037.9 685.1C1038.2 685.3 1039 685 1039.8 684.6C1039.8 684.6 1039.8 684.6 1039.9 684.6C1039.7 685.2 1039.9 685.8 1040.3 685.8C1040.7 685.9 1041.2 685.5 1041.4 684.9C1041.9 685.4 1042.5 685.7 1042.8 685.6C1043.2 685.5 1043.1 684.9 1042.7 684.3C1043.6 684.4 1044.4 684.4 1044.5 684.1C1044.4 683.8 1043.8 683.5 1042.9 683.3Z" fill="white"/>
<path d="M1040.9 684.2C1041.56 684.2 1042.1 683.841 1042.1 683.4C1042.1 682.958 1041.56 682.6 1040.9 682.6C1040.24 682.6 1039.7 682.958 1039.7 683.4C1039.7 683.841 1040.24 684.2 1040.9 684.2Z" fill="#DFD133"/>
<path d="M763.7 716.5C764.5 716.2 765.1 715.9 764.9 715.6C764.7 715.4 764 715.4 763.1 715.6C763.5 715.1 763.5 714.6 763.2 714.5C762.9 714.4 762.2 714.7 761.8 715.2C761.6 714.6 761.1 714.2 760.7 714.3C760.3 714.4 760.1 714.8 760.3 715.4C759.5 715.1 758.8 714.9 758.5 715.1C758.3 715.3 758.6 715.7 759.3 716.1C758.4 716.1 757.7 716.3 757.7 716.6C757.7 716.8 758.4 717.1 759.4 717.1C758.7 717.6 758.4 718.1 758.7 718.3C759 718.5 759.8 718.2 760.6 717.8C760.6 717.8 760.6 717.8 760.7 717.8C760.5 718.4 760.7 719 761.1 719C761.5 719.1 762 718.7 762.2 718.1C762.7 718.6 763.3 718.9 763.6 718.8C764 718.7 763.9 718.1 763.5 717.5C764.4 717.6 765.2 717.6 765.3 717.3C765.2 717 764.6 716.7 763.7 716.5Z" fill="white"/>
<path d="M761.7 717.4C762.363 717.4 762.9 717.042 762.9 716.6C762.9 716.158 762.363 715.8 761.7 715.8C761.037 715.8 760.5 716.158 760.5 716.6C760.5 717.042 761.037 717.4 761.7 717.4Z" fill="#DFD133"/>
<path d="M821.9 716.5C822.7 716.2 823.3 715.9 823.1 715.6C822.9 715.4 822.2 715.4 821.3 715.6C821.7 715.1 821.7 714.6 821.4 714.5C821.1 714.4 820.4 714.7 820 715.2C819.8 714.6 819.3 714.2 818.9 714.3C818.5 714.4 818.3 714.8 818.5 715.4C817.7 715.1 817 714.9 816.7 715.1C816.5 715.3 816.8 715.7 817.5 716.1C816.6 716.1 815.9 716.3 815.9 716.6C815.9 716.8 816.6 717.1 817.6 717.1C816.9 717.6 816.6 718.1 816.9 718.3C817.2 718.5 818 718.2 818.8 717.8C818.8 717.8 818.8 717.8 818.9 717.8C818.7 718.4 818.9 719 819.3 719C819.7 719.1 820.2 718.7 820.4 718.1C820.9 718.6 821.5 718.9 821.8 718.8C822.2 718.7 822.1 718.1 821.7 717.5C822.6 717.6 823.4 717.6 823.5 717.3C823.4 717 822.8 716.7 821.9 716.5Z" fill="white"/>
<path d="M819.9 717.4C820.563 717.4 821.1 717.042 821.1 716.6C821.1 716.158 820.563 715.8 819.9 715.8C819.237 715.8 818.7 716.158 818.7 716.6C818.7 717.042 819.237 717.4 819.9 717.4Z" fill="#DFD133"/>
<path d="M1212.4 669.3C1213.2 669 1213.8 668.7 1213.6 668.4C1213.4 668.2 1212.7 668.2 1211.8 668.4C1212.2 667.9 1212.2 667.4 1211.9 667.3C1211.6 667.2 1210.9 667.5 1210.5 668C1210.3 667.4 1209.8 667 1209.4 667.1C1209 667.2 1208.8 667.6 1209 668.2C1208.2 667.9 1207.5 667.7 1207.2 667.9C1206.9 668.1 1207.3 668.5 1208 668.9C1207.1 668.9 1206.4 669.1 1206.4 669.4C1206.4 669.7 1207.1 669.9 1208.1 669.9C1207.4 670.4 1207.1 670.9 1207.4 671.1C1207.7 671.3 1208.5 671 1209.3 670.6C1209.3 670.6 1209.3 670.6 1209.4 670.6C1209.2 671.2 1209.4 671.8 1209.8 671.8C1210.2 671.9 1210.7 671.5 1210.9 670.9C1211.4 671.4 1212 671.7 1212.3 671.6C1212.7 671.5 1212.6 670.9 1212.2 670.3C1213.1 670.4 1213.9 670.4 1214 670.1C1213.9 669.8 1213.3 669.5 1212.4 669.3Z" fill="white"/>
<path d="M1210.4 670.3C1211.06 670.3 1211.6 669.942 1211.6 669.5C1211.6 669.058 1211.06 668.7 1210.4 668.7C1209.74 668.7 1209.2 669.058 1209.2 669.5C1209.2 669.942 1209.74 670.3 1210.4 670.3Z" fill="#DFD133"/>
<path d="M1298.7 669.4C1299.5 669.1 1300.1 668.8 1299.9 668.5C1299.7 668.3 1299 668.3 1298.1 668.5C1298.5 668 1298.5 667.5 1298.2 667.4C1297.9 667.3 1297.2 667.6 1296.8 668.1C1296.6 667.5 1296.1 667.1 1295.7 667.2C1295.3 667.3 1295.1 667.7 1295.3 668.3C1294.5 668 1293.8 667.8 1293.5 668C1293.2 668.2 1293.6 668.6 1294.3 669C1293.4 669 1292.7 669.2 1292.7 669.5C1292.7 669.8 1293.4 670 1294.4 670C1293.7 670.5 1293.4 671 1293.7 671.2C1294 671.4 1294.8 671.1 1295.6 670.7C1295.6 670.7 1295.6 670.7 1295.7 670.7C1295.5 671.3 1295.7 671.9 1296.1 671.9C1296.5 672 1297 671.6 1297.2 671C1297.7 671.5 1298.3 671.8 1298.6 671.7C1299 671.6 1298.9 671 1298.5 670.4C1299.4 670.5 1300.2 670.5 1300.3 670.2C1300.1 669.9 1299.5 669.6 1298.7 669.4Z" fill="white"/>
<path d="M1296.6 670.3C1297.26 670.3 1297.8 669.942 1297.8 669.5C1297.8 669.058 1297.26 668.7 1296.6 668.7C1295.94 668.7 1295.4 669.058 1295.4 669.5C1295.4 669.942 1295.94 670.3 1296.6 670.3Z" fill="#DFD133"/>
<path d="M940.101 678.6C940.901 678.3 941.501 678 941.301 677.7C941.101 677.5 940.401 677.5 939.501 677.7C939.901 677.2 939.901 676.7 939.601 676.6C939.301 676.5 938.601 676.8 938.201 677.3C938.001 676.7 937.501 676.3 937.101 676.4C936.701 676.5 936.501 676.9 936.701 677.5C935.901 677.2 935.201 677 934.901 677.2C934.701 677.4 935.001 677.8 935.701 678.2C934.801 678.2 934.101 678.4 934.101 678.7C934.101 679 934.801 679.2 935.801 679.2C935.101 679.7 934.801 680.2 935.101 680.4C935.401 680.6 936.201 680.3 937.001 679.9C937.001 679.9 937.001 679.9 937.101 679.9C936.901 680.5 937.101 681.1 937.501 681.1C937.901 681.2 938.401 680.8 938.601 680.2C939.101 680.7 939.701 681 940.001 680.9C940.401 680.8 940.301 680.2 939.901 679.6C940.801 679.7 941.601 679.7 941.701 679.4C941.601 679.1 941.001 678.8 940.101 678.6Z" fill="white"/>
<path d="M938.1 679.5C938.763 679.5 939.3 679.142 939.3 678.7C939.3 678.258 938.763 677.9 938.1 677.9C937.438 677.9 936.9 678.258 936.9 678.7C936.9 679.142 937.438 679.5 938.1 679.5Z" fill="#DFD133"/>
<path d="M1123.9 672.7C1124.7 672.4 1125.3 672.1 1125.1 671.8C1124.9 671.6 1124.2 671.6 1123.3 671.8C1123.7 671.3 1123.7 670.8 1123.4 670.7C1123.1 670.6 1122.4 670.9 1122 671.4C1121.8 670.8 1121.3 670.4 1120.9 670.5C1120.5 670.6 1120.3 671 1120.5 671.6C1119.7 671.3 1119 671.1 1118.7 671.3C1118.5 671.5 1118.8 671.9 1119.5 672.3C1118.6 672.3 1117.9 672.5 1117.9 672.8C1117.9 673 1118.6 673.3 1119.6 673.3C1118.9 673.8 1118.6 674.3 1118.9 674.5C1119.2 674.7 1120 674.4 1120.8 674C1120.8 674 1120.8 674 1120.9 674C1120.7 674.6 1120.9 675.2 1121.3 675.2C1121.7 675.3 1122.2 674.9 1122.4 674.3C1122.9 674.8 1123.5 675.1 1123.8 675C1124.2 674.9 1124.1 674.3 1123.7 673.7C1124.6 673.8 1125.4 673.8 1125.5 673.5C1125.4 673.2 1124.8 672.9 1123.9 672.7Z" fill="white"/>
<path d="M1121.9 673.599C1122.56 673.599 1123.1 673.241 1123.1 672.799C1123.1 672.358 1122.56 672 1121.9 672C1121.24 672 1120.7 672.358 1120.7 672.799C1120.7 673.241 1121.24 673.599 1121.9 673.599Z" fill="#DFD133"/>
<path d="M1140.3 653.5C1141.1 653.2 1141.7 652.9 1141.5 652.6C1141.3 652.4 1140.6 652.4 1139.7 652.6C1140.1 652.1 1140.1 651.6 1139.8 651.5C1139.5 651.4 1138.8 651.7 1138.4 652.2C1138.2 651.6 1137.7 651.2 1137.3 651.3C1136.9 651.4 1136.7 651.8 1136.9 652.4C1136.1 652.1 1135.4 651.9 1135.1 652.1C1134.9 652.3 1135.2 652.7 1135.9 653.1C1135 653.1 1134.3 653.3 1134.3 653.6C1134.3 653.8 1135 654.1 1136 654.1C1135.3 654.6 1135 655.1 1135.3 655.3C1135.6 655.5 1136.4 655.2 1137.2 654.8C1137.2 654.8 1137.2 654.8 1137.3 654.8C1137.1 655.4 1137.3 656 1137.7 656C1138.1 656.1 1138.6 655.7 1138.8 655.1C1139.3 655.6 1139.9 655.9 1140.2 655.8C1140.6 655.7 1140.5 655.1 1140.1 654.5C1141 654.6 1141.8 654.6 1141.9 654.3C1141.7 654 1141.1 653.7 1140.3 653.5Z" fill="white"/>
<path d="M1138.2 654.5C1138.86 654.5 1139.4 654.142 1139.4 653.7C1139.4 653.258 1138.86 652.9 1138.2 652.9C1137.54 652.9 1137 653.258 1137 653.7C1137 654.142 1137.54 654.5 1138.2 654.5Z" fill="#DFD133"/>
<path d="M1099.9 678.8C1100.7 678.5 1101.3 678.2 1101.1 677.9C1100.9 677.7 1100.2 677.7 1099.3 677.9C1099.7 677.4 1099.7 676.9 1099.4 676.8C1099.1 676.7 1098.4 677 1098 677.5C1097.8 676.9 1097.3 676.5 1096.9 676.6C1096.5 676.7 1096.3 677.1 1096.5 677.7C1095.7 677.4 1095 677.2 1094.7 677.4C1094.5 677.6 1094.8 678 1095.5 678.4C1094.6 678.4 1093.9 678.6 1093.9 678.9C1093.9 679.1 1094.6 679.4 1095.6 679.4C1094.9 679.9 1094.6 680.4 1094.9 680.6C1095.2 680.8 1096 680.5 1096.8 680.1C1096.8 680.1 1096.8 680.1 1096.9 680.1C1096.7 680.7 1096.9 681.3 1097.3 681.3C1097.7 681.4 1098.2 681 1098.4 680.4C1098.9 680.9 1099.5 681.2 1099.8 681.1C1100.2 681 1100.1 680.4 1099.7 679.8C1100.6 679.9 1101.4 679.9 1101.5 679.6C1101.4 679.3 1100.8 679 1099.9 678.8Z" fill="white"/>
<path d="M1097.9 679.7C1098.56 679.7 1099.1 679.341 1099.1 678.9C1099.1 678.458 1098.56 678.1 1097.9 678.1C1097.24 678.1 1096.7 678.458 1096.7 678.9C1096.7 679.341 1097.24 679.7 1097.9 679.7Z" fill="#DFD133"/>
<path d="M859.2 700.7C860 700.4 860.6 700.1 860.4 699.8C860.2 699.6 859.5 699.6 858.6 699.8C859 699.3 859 698.8 858.7 698.7C858.4 698.6 857.7 698.9 857.3 699.4C857.1 698.8 856.6 698.4 856.2 698.5C855.8 698.6 855.6 699 855.8 699.6C855 699.3 854.3 699.1 854 699.3C853.8 699.5 854.1 699.9 854.8 700.3C853.9 700.3 853.2 700.5 853.2 700.8C853.2 701 853.9 701.3 854.9 701.3C854.2 701.8 853.9 702.3 854.2 702.5C854.5 702.7 855.3 702.4 856.1 702C856.1 702 856.1 702 856.2 702C856 702.6 856.2 703.2 856.6 703.2C857 703.3 857.5 702.9 857.7 702.3C858.2 702.8 858.8 703.1 859.1 703C859.5 702.9 859.4 702.3 859 701.7C859.9 701.8 860.7 701.8 860.8 701.5C860.7 701.2 860.1 700.9 859.2 700.7Z" fill="white"/>
<path d="M857.2 701.599C857.863 701.599 858.4 701.241 858.4 700.799C858.4 700.358 857.863 700 857.2 700C856.537 700 856 700.358 856 700.799C856 701.241 856.537 701.599 857.2 701.599Z" fill="#DFD133"/>
<path d="M1057.2 648.9C1058 648.6 1058.6 648.3 1058.4 648C1058.2 647.8 1057.5 647.8 1056.6 648C1057 647.5 1057 647 1056.7 646.9C1056.4 646.8 1055.7 647.1 1055.3 647.6C1055.1 647 1054.6 646.6 1054.2 646.7C1053.8 646.8 1053.6 647.2 1053.8 647.8C1053 647.5 1052.3 647.3 1052 647.5C1051.8 647.7 1052.1 648.1 1052.8 648.5C1051.9 648.5 1051.2 648.7 1051.2 649C1051.2 649.3 1051.9 649.5 1052.9 649.5C1052.2 650 1051.9 650.5 1052.2 650.7C1052.5 650.9 1053.3 650.6 1054.1 650.2C1054.1 650.2 1054.1 650.2 1054.2 650.2C1054 650.8 1054.2 651.4 1054.6 651.4C1055 651.5 1055.5 651.1 1055.7 650.5C1056.2 651 1056.8 651.3 1057.1 651.2C1057.5 651.1 1057.4 650.5 1057 649.9C1057.9 650 1058.7 650 1058.8 649.7C1058.7 649.4 1058.1 649 1057.2 648.9Z" fill="white"/>
<path d="M1055.2 649.8C1055.86 649.8 1056.4 649.442 1056.4 649C1056.4 648.558 1055.86 648.2 1055.2 648.2C1054.54 648.2 1054 648.558 1054 649C1054 649.442 1054.54 649.8 1055.2 649.8Z" fill="#DFD133"/>
</g>
<path d="M1400 674.4C1400 586.5 1400 477.9 1400 441.5C1400 425.5 1388 419 1373.2 426.8C1369.1 428.9 1365.2 431.9 1361.8 435.5C1355.2 427.4 1343.4 425.7 1330 432.3C1325.3 434.6 1320.8 437.7 1316.7 441.3C1314.8 433 1308.8 428.3 1300.8 428.3C1300.8 427.5 1300.9 426.7 1300.9 426C1300.9 403.6 1283.9 393.3 1262.9 402.3C1258.5 404.2 1254.2 406.8 1250.2 410C1242.3 391.8 1222.6 384.8 1199.5 393.5C1182.4 400 1167.2 413.7 1157.1 430.1C1153.3 429.8 1149.1 430.3 1144.7 431.8C1135.3 435 1126.8 441.8 1120.8 450.3C1120 444.5 1115.1 441.4 1109.1 443.2C1103.5 444.9 1098.8 450.4 1097.6 456.3C1094.1 456.3 1090.4 456.8 1086.6 457.9C1073.8 461.6 1062.3 471 1054.9 482.8C1046.5 478 1035.9 476.5 1024.3 479.3C1000.5 485.1 980.6 507 976.3 531.4C972.9 529.2 968.6 528.4 963.9 529.3C963.3 529.4 962.6 529.6 962 529.8C958.2 516.2 945.5 508.2 930.5 510.8C923.1 512.1 916.2 515.8 910.7 521C908.5 512.1 900.5 506.5 890.9 507.9C888.1 508.3 885.4 509.2 883 510.6C879.9 501 870.9 494.9 860.2 496.2C849.4 497.5 840.2 505.9 837.3 516.4C833.4 515.5 829.3 515.1 825 515.5C803.3 517.5 785.7 536.7 785.7 559.2C785.7 560.3 785.8 561.4 785.8 562.4C782.5 561.6 779 561.3 775.4 561.5C768.7 561.9 762.4 564 756.9 567.4C756.2 540.3 734.8 519.5 708.3 519.7C684.5 519.9 664.7 536.9 660.5 560.1C656.3 556.6 651 554.4 645.3 554C636.9 514 602.7 482.9 561.8 478.7C541.5 476.6 522.8 481.6 508.2 491.8C500.6 478.9 487.5 469.2 472.8 466.7C458 464.2 445 469.6 437.4 480C432.3 474.6 425.8 470.7 418.7 469.2C407.9 466.9 398.5 470.9 393.5 478.8C376.7 475.6 362 480.7 352.8 491.6C348.7 486.8 343.3 483.1 337.4 481.5C332.5 480.2 327.9 480.5 324.1 482.1C313.9 461.8 295.5 444.8 274.6 438.1C259 433.1 244.8 434.8 234.4 441.7C230.1 434.6 223.5 428.7 216.2 426C211.5 424.3 207.2 424.1 203.5 425.2C190.5 401.1 169.3 380.4 145.5 370.3C118.1 358.7 94.5 364.3 82.7 382.8C79.7 380.7 76.6 378.8 73.4 377.3C49.9 366 31 376.6 31 401.8C31 402.3 31 402.8 31 403.3C28.5 401.1 25.9 399.2 23.1 397.7C10.5 391 0 396.6 0 410.7C0 455.3 0 578 0 674.4H1400Z" fill="#EFFCFF"/>
<path d="M413.4 675.7C496.9 674.5 568.7 687.6 648.2 702.7C792.7 730.1 826.7 723.9 894.8 718.4C965.1 712.7 1060.7 665.1 1164.5 637.4C1110.8 629.7 1056.2 622.1 999.9 621.3C916.4 620.1 844.6 633.2 765.1 648.3C620.6 675.7 586.6 669.5 518.5 664C446 658.2 346.6 607.7 239.2 580.5C133.5 553.7 32.7 562.3 0 565.7V704.6C136.6 723.9 269.3 677.8 413.4 675.7Z" fill="url(#paint0_linear_132_1405)"/>
<g opacity="0.6">
<path d="M1014.9 648.1C1013.5 648 1012.5 647.6 1012.7 647.2C1012.9 646.8 1014.1 646.5 1015.6 646.5C1014.8 645.8 1014.6 645.1 1015.1 644.8C1015.6 644.5 1016.7 644.8 1017.7 645.4C1017.9 644.4 1018.5 643.7 1019.2 643.6C1019.9 643.5 1020.3 644.2 1020.2 645.2C1021.3 644.4 1022.5 644 1023 644.2C1023.5 644.4 1023 645.2 1022.1 646.1C1023.6 645.8 1024.8 645.9 1024.9 646.3C1025 646.7 1023.9 647.3 1022.4 647.6C1023.7 648.1 1024.4 648.8 1023.9 649.2C1023.5 649.6 1022 649.5 1020.7 649C1020.7 649 1020.6 649 1020.6 648.9C1021.1 649.8 1021 650.7 1020.4 650.9C1019.8 651.1 1018.9 650.7 1018.3 649.9C1017.7 650.8 1016.8 651.5 1016.2 651.5C1015.6 651.4 1015.5 650.6 1016 649.5C1014.6 650 1013.3 650.2 1013 649.8C1012.7 649.4 1013.6 648.7 1014.9 648.1Z" fill="white"/>
<path d="M1018.08 646.38C1017 646.612 1016.24 647.324 1016.38 647.972C1016.51 648.62 1017.5 648.958 1018.58 648.727C1019.66 648.496 1020.43 647.783 1020.29 647.135C1020.15 646.487 1019.16 646.149 1018.08 646.38Z" fill="#DFD133"/>
<path d="M964.6 676.1C963.2 676 962.2 675.6 962.4 675.2C962.6 674.8 963.8 674.5 965.3 674.5C964.5 673.8 964.3 673.1 964.8 672.8C965.3 672.5 966.4 672.8 967.4 673.4C967.6 672.4 968.2 671.7 968.9 671.6C969.6 671.5 970 672.2 969.9 673.2C971 672.4 972.2 672 972.7 672.2C973.2 672.4 972.7 673.2 971.8 674.1C973.3 673.8 974.5 673.9 974.6 674.3C974.7 674.7 973.6 675.3 972.1 675.6C973.4 676.1 974.1 676.8 973.6 677.2C973.2 677.6 971.7 677.5 970.4 677C970.4 677 970.3 677 970.3 676.9C970.8 677.8 970.7 678.7 970.1 678.9C969.5 679.1 968.6 678.7 968 677.9C967.4 678.8 966.5 679.5 965.9 679.5C965.3 679.4 965.2 678.6 965.7 677.5C964.3 678 963 678.2 962.7 677.8C962.4 677.4 963.3 676.7 964.6 676.1Z" fill="white"/>
<path d="M967.777 674.487C966.697 674.718 965.934 675.431 966.073 676.079C966.212 676.727 967.2 677.065 968.28 676.834C969.36 676.603 970.123 675.89 969.984 675.242C969.845 674.594 968.857 674.256 967.777 674.487Z" fill="#DFD133"/>
<path d="M788.3 667.2C786.9 667.1 785.9 666.7 786.1 666.3C786.3 665.9 787.5 665.6 789 665.6C788.2 664.9 788 664.2 788.5 663.9C789 663.6 790.1 663.9 791.1 664.5C791.3 663.5 791.9 662.8 792.6 662.7C793.3 662.6 793.7 663.3 793.6 664.3C794.7 663.5 795.9 663.1 796.4 663.3C796.9 663.5 796.4 664.3 795.5 665.2C797 664.9 798.2 665 798.3 665.4C798.4 665.8 797.3 666.4 795.8 666.7C797.1 667.2 797.8 667.9 797.3 668.3C796.9 668.7 795.4 668.6 794.1 668.1C794.1 668.1 794 668.1 794 668C794.5 668.9 794.4 669.8 793.8 670C793.2 670.2 792.3 669.8 791.7 669C791.1 669.9 790.2 670.6 789.6 670.6C789 670.5 788.9 669.7 789.4 668.6C788 669.1 786.7 669.3 786.4 668.9C786.1 668.5 786.9 667.8 788.3 667.2Z" fill="white"/>
<path d="M791.392 665.564C790.312 665.795 789.549 666.508 789.688 667.156C789.827 667.804 790.815 668.142 791.895 667.91C792.975 667.679 793.738 666.966 793.599 666.318C793.461 665.67 792.472 665.332 791.392 665.564Z" fill="#DFD133"/>
<path d="M829.5 678C828.5 677.9 827.8 677.6 827.9 677.3C828 677 828.9 676.8 830 676.8C829.4 676.3 829.3 675.8 829.6 675.5C829.9 675.2 830.8 675.5 831.5 675.9C831.6 675.2 832.1 674.6 832.6 674.6C833.1 674.6 833.4 675.1 833.4 675.7C834.2 675.1 835.1 674.8 835.4 674.9C835.7 675.1 835.4 675.6 834.7 676.3C835.8 676.1 836.7 676.2 836.7 676.4C836.8 676.7 836 677.1 834.9 677.4C835.8 677.8 836.3 678.3 836 678.6C835.7 678.9 834.6 678.8 833.7 678.5H833.6C834 679.1 833.9 679.8 833.5 679.9C833.1 680.1 832.4 679.7 832 679.2C831.6 679.9 830.9 680.4 830.5 680.4C830 680.4 830 679.7 830.3 679C829.3 679.4 828.3 679.5 828.1 679.2C827.9 679 828.5 678.5 829.5 678Z" fill="white"/>
<path d="M831.706 676.781C830.896 676.955 830.324 677.489 830.428 677.975C830.532 678.461 831.273 678.715 832.083 678.541C832.893 678.368 833.465 677.833 833.361 677.347C833.257 676.861 832.516 676.608 831.706 676.781Z" fill="#DFD133"/>
<path d="M868.9 662.1C867.9 662 867.2 661.7 867.3 661.4C867.4 661.1 868.3 660.9 869.4 660.9C868.8 660.4 868.7 659.9 869 659.6C869.4 659.4 870.2 659.6 870.9 660C871 659.3 871.5 658.7 872 658.7C872.5 658.7 872.8 659.2 872.8 659.8C873.6 659.2 874.5 658.9 874.8 659C875.1 659.2 874.8 659.7 874.1 660.4C875.2 660.2 876.1 660.3 876.1 660.5C876.2 660.8 875.4 661.2 874.3 661.5C875.2 661.9 875.7 662.4 875.4 662.7C875.1 663 874 662.9 873.1 662.6H873C873.4 663.2 873.3 663.9 872.9 664C872.5 664.2 871.8 663.8 871.4 663.3C871 664 870.3 664.5 869.9 664.5C869.4 664.5 869.4 663.8 869.7 663.1C868.7 663.5 867.7 663.6 867.5 663.3C867.3 663 867.9 662.5 868.9 662.1Z" fill="white"/>
<path d="M871.082 660.832C870.272 661.006 869.7 661.54 869.804 662.026C869.908 662.512 870.649 662.766 871.459 662.592C872.269 662.419 872.841 661.884 872.737 661.398C872.633 660.912 871.892 660.659 871.082 660.832Z" fill="#DFD133"/>
<path d="M922.2 660.2C921.2 660.1 920.5 659.8 920.6 659.5C920.7 659.2 921.6 659 922.7 659C922.1 658.5 922 658 922.3 657.7C922.7 657.5 923.5 657.7 924.2 658.1C924.3 657.4 924.8 656.8 925.3 656.8C925.8 656.8 926.1 657.3 926.1 657.9C926.9 657.3 927.8 657 928.1 657.1C928.4 657.3 928.1 657.8 927.4 658.5C928.5 658.3 929.4 658.4 929.4 658.6C929.5 658.9 928.7 659.3 927.6 659.6C928.5 660 929 660.5 928.7 660.8C928.4 661.1 927.3 661 926.4 660.7H926.3C926.7 661.3 926.6 662 926.2 662.1C925.8 662.3 925.1 661.9 924.7 661.4C924.3 662.1 923.6 662.6 923.2 662.6C922.7 662.6 922.7 661.9 923 661.2C922 661.6 921 661.7 920.8 661.4C920.6 661.1 921.2 660.6 922.2 660.2Z" fill="white"/>
<path d="M924.471 658.932C923.661 659.106 923.089 659.641 923.193 660.127C923.297 660.613 924.038 660.866 924.848 660.693C925.658 660.519 926.23 659.984 926.126 659.498C926.022 659.012 925.281 658.759 924.471 658.932Z" fill="#DFD133"/>
<path d="M899.6 662.2C898.6 662.1 897.9 661.8 898 661.5C898.1 661.2 899 661 900.1 661C899.5 660.5 899.4 660 899.7 659.7C900.1 659.5 900.9 659.7 901.6 660.1C901.7 659.4 902.2 658.8 902.7 658.8C903.2 658.8 903.5 659.3 903.5 659.9C904.3 659.3 905.2 659 905.5 659.1C905.8 659.3 905.5 659.8 904.8 660.5C905.9 660.3 906.8 660.4 906.8 660.6C906.9 660.9 906.1 661.3 905 661.6C905.9 662 906.4 662.5 906.1 662.8C905.8 663.1 904.7 663 903.8 662.7H903.7C904.1 663.3 904 664 903.6 664.1C903.2 664.3 902.5 663.9 902.1 663.4C901.7 664.1 901 664.6 900.6 664.6C900.1 664.6 900.1 663.9 900.4 663.2C899.4 663.6 898.4 663.7 898.2 663.4C898 663.1 898.6 662.6 899.6 662.2Z" fill="white"/>
<path d="M901.819 660.994C901.009 661.167 900.437 661.702 900.541 662.188C900.645 662.674 901.386 662.928 902.196 662.754C903.006 662.581 903.579 662.046 903.475 661.56C903.371 661.074 902.63 660.821 901.819 660.994Z" fill="#DFD133"/>
<path d="M1041.8 649.3C1041 649.2 1040.5 649 1040.6 648.8C1040.7 648.6 1041.4 648.4 1042.2 648.4C1041.8 648 1041.6 647.6 1041.9 647.4C1042.2 647.2 1042.8 647.4 1043.3 647.7C1043.4 647.2 1043.8 646.7 1044.1 646.7C1044.5 646.7 1044.7 647.1 1044.7 647.6C1045.3 647.2 1046 646.9 1046.2 647C1046.5 647.1 1046.2 647.6 1045.7 648C1046.5 647.8 1047.2 647.9 1047.3 648.1C1047.3 648.3 1046.7 648.6 1045.9 648.8C1046.6 649.1 1047 649.5 1046.7 649.7C1046.5 649.9 1045.7 649.9 1044.9 649.6C1044.9 649.6 1044.9 649.6 1044.8 649.6C1045.1 650.1 1045 650.6 1044.7 650.7C1044.4 650.8 1043.9 650.6 1043.5 650.1C1043.2 650.6 1042.7 651 1042.4 651C1042 651 1042 650.5 1042.3 649.9C1041.5 650.2 1040.8 650.3 1040.6 650.1C1040.6 650.1 1041.1 649.7 1041.8 649.3Z" fill="white"/>
<path d="M1043.53 648.355C1042.93 648.482 1042.52 648.891 1042.6 649.269C1042.68 649.647 1043.23 649.851 1043.82 649.723C1044.41 649.596 1044.83 649.187 1044.75 648.809C1044.67 648.431 1044.12 648.227 1043.53 648.355Z" fill="#DFD133"/>
<path d="M848.3 681.7C847.5 681.6 847 681.4 847.1 681.2C847.2 681 847.9 680.8 848.7 680.8C848.3 680.4 848.1 680 848.4 679.8C848.7 679.6 849.3 679.8 849.8 680.1C849.9 679.6 850.3 679.1 850.6 679.1C851 679.1 851.2 679.5 851.2 680C851.8 679.6 852.5 679.3 852.7 679.4C853 679.5 852.7 680 852.2 680.4C853 680.2 853.7 680.3 853.8 680.5C853.8 680.7 853.2 681 852.4 681.2C853.1 681.5 853.5 681.9 853.2 682.1C853 682.3 852.2 682.3 851.4 682C851.4 682 851.4 682 851.3 682C851.6 682.5 851.5 683 851.2 683.1C850.9 683.2 850.4 683 850 682.5C849.7 683 849.2 683.4 848.9 683.4C848.5 683.4 848.5 682.9 848.8 682.3C848 682.6 847.3 682.7 847.1 682.5C847.1 682.4 847.6 682.1 848.3 681.7Z" fill="white"/>
<path d="M850.015 680.81C849.421 680.937 849.005 681.347 849.086 681.725C849.167 682.103 849.714 682.306 850.308 682.179C850.902 682.052 851.318 681.642 851.237 681.264C851.156 680.886 850.609 680.683 850.015 680.81Z" fill="#DFD133"/>
<path d="M889 680C888.2 679.9 887.7 679.7 887.8 679.5C887.9 679.3 888.6 679.1 889.4 679.1C889 678.7 888.8 678.3 889.1 678.1C889.4 677.9 890 678.1 890.5 678.4C890.6 677.9 891 677.4 891.3 677.4C891.7 677.4 891.9 677.8 891.9 678.3C892.5 677.9 893.2 677.6 893.4 677.7C893.6 677.8 893.4 678.3 892.9 678.7C893.7 678.5 894.4 678.6 894.5 678.8C894.5 679 893.9 679.3 893.1 679.5C893.8 679.8 894.2 680.2 893.9 680.4C893.7 680.6 892.9 680.6 892.1 680.3C892.1 680.3 892.1 680.3 892 680.3C892.3 680.8 892.2 681.3 891.9 681.4C891.6 681.5 891.1 681.3 890.7 680.8C890.4 681.3 889.9 681.7 889.6 681.7C889.2 681.7 889.2 681.2 889.5 680.6C888.7 680.9 888 681 887.8 680.8C887.8 680.7 888.2 680.3 889 680Z" fill="white"/>
<path d="M890.793 679.022C890.199 679.149 889.783 679.559 889.864 679.937C889.945 680.315 890.493 680.518 891.087 680.391C891.681 680.264 892.096 679.854 892.016 679.476C891.935 679.098 891.387 678.895 890.793 679.022Z" fill="#DFD133"/>
<path d="M939.9 657.9C939.1 657.8 938.6 657.6 938.7 657.4C938.8 657.2 939.5 657 940.3 657C939.9 656.6 939.7 656.2 940 656C940.3 655.8 940.9 656 941.4 656.3C941.5 655.8 941.9 655.3 942.2 655.3C942.6 655.3 942.8 655.7 942.8 656.2C943.4 655.8 944.1 655.5 944.3 655.6C944.6 655.7 944.3 656.2 943.8 656.6C944.6 656.4 945.3 656.5 945.4 656.7C945.4 656.9 944.8 657.2 944 657.4C944.7 657.7 945.1 658.1 944.8 658.3C944.6 658.5 943.8 658.5 943 658.2C943 658.2 943 658.2 942.9 658.2C943.2 658.7 943.1 659.2 942.8 659.3C942.5 659.4 942 659.2 941.6 658.7C941.3 659.2 940.8 659.6 940.5 659.6C940.1 659.6 940.1 659.1 940.4 658.5C939.6 658.8 938.9 658.9 938.7 658.7C938.7 658.6 939.2 658.2 939.9 657.9Z" fill="white"/>
<path d="M941.666 656.926C941.072 657.054 940.656 657.463 940.737 657.841C940.818 658.219 941.366 658.422 941.96 658.295C942.554 658.168 942.97 657.759 942.889 657.381C942.808 657.003 942.26 656.799 941.666 656.926Z" fill="#DFD133"/>
<path d="M773.4 688.3C772.6 688.2 772.1 688 772.2 687.8C772.3 687.6 773 687.4 773.8 687.4C773.4 687 773.2 686.6 773.5 686.4C773.8 686.2 774.4 686.4 774.9 686.7C775 686.2 775.4 685.7 775.7 685.7C776 685.7 776.3 686.1 776.3 686.6C776.9 686.2 777.6 685.9 777.8 686C778.1 686.1 777.8 686.6 777.3 687C778.1 686.8 778.8 686.9 778.9 687.1C778.9 687.3 778.3 687.6 777.5 687.8C778.2 688.1 778.6 688.5 778.3 688.7C778.1 688.9 777.3 688.9 776.5 688.6C776.5 688.6 776.5 688.6 776.4 688.6C776.7 689.1 776.6 689.6 776.3 689.7C776 689.8 775.5 689.6 775.1 689.1C774.8 689.6 774.3 690 774 690C773.6 690 773.6 689.5 773.9 688.9C773.1 689.2 772.4 689.3 772.2 689.1C772.2 689 772.6 688.6 773.4 688.3Z" fill="white"/>
<path d="M775.184 687.274C774.59 687.401 774.174 687.81 774.255 688.188C774.336 688.566 774.883 688.77 775.477 688.642C776.071 688.515 776.487 688.106 776.406 687.728C776.325 687.35 775.778 687.146 775.184 687.274Z" fill="#DFD133"/>
<path d="M755.2 675C754.4 674.9 753.9 674.7 754 674.5C754.1 674.3 754.8 674.1 755.6 674.1C755.2 673.7 755 673.3 755.3 673.1C755.6 672.9 756.2 673.1 756.7 673.4C756.8 672.9 757.2 672.4 757.5 672.4C757.9 672.4 758.1 672.8 758.1 673.3C758.7 672.9 759.4 672.6 759.6 672.7C759.9 672.8 759.6 673.3 759.1 673.7C759.9 673.5 760.6 673.6 760.7 673.8C760.7 674 760.1 674.3 759.3 674.5C760 674.8 760.4 675.2 760.1 675.4C759.9 675.6 759.1 675.6 758.3 675.3C758.3 675.3 758.3 675.3 758.2 675.3C758.5 675.8 758.4 676.3 758.1 676.4C757.8 676.5 757.3 676.3 756.9 675.8C756.6 676.3 756.1 676.7 755.8 676.7C755.4 676.7 755.4 676.2 755.7 675.6C754.9 675.9 754.2 676 754 675.8C754 675.7 754.4 675.3 755.2 675Z" fill="white"/>
<path d="M756.984 674.016C756.39 674.143 755.974 674.552 756.055 674.93C756.136 675.309 756.683 675.512 757.277 675.385C757.871 675.257 758.287 674.848 758.206 674.47C758.125 674.092 757.578 673.888 756.984 674.016Z" fill="#DFD133"/>
<path d="M796.2 688.9C795.4 688.8 794.9 688.6 795 688.4C795.1 688.2 795.8 688 796.6 688C796.2 687.6 796 687.2 796.3 687C796.6 686.8 797.2 687 797.7 687.3C797.8 686.8 798.2 686.3 798.5 686.3C798.9 686.3 799.1 686.7 799.1 687.2C799.7 686.8 800.4 686.5 800.6 686.6C800.9 686.7 800.6 687.2 800.1 687.6C800.9 687.4 801.6 687.5 801.7 687.7C801.7 687.9 801.1 688.2 800.3 688.4C801 688.7 801.4 689.1 801.1 689.3C800.9 689.5 800.1 689.5 799.3 689.2C799.3 689.2 799.3 689.2 799.2 689.2C799.5 689.7 799.4 690.2 799.1 690.3C798.8 690.4 798.3 690.2 797.9 689.7C797.6 690.2 797.1 690.6 796.8 690.6C796.4 690.6 796.4 690.1 796.7 689.5C795.9 689.8 795.2 689.9 795 689.7C794.9 689.6 795.4 689.2 796.2 688.9Z" fill="white"/>
<path d="M797.911 687.873C797.317 688 796.901 688.41 796.982 688.788C797.063 689.166 797.61 689.369 798.204 689.242C798.798 689.115 799.214 688.705 799.133 688.327C799.052 687.949 798.505 687.746 797.911 687.873Z" fill="#DFD133"/>
<path d="M1016.9 661.2C1016.1 661.1 1015.6 660.9 1015.7 660.7C1015.8 660.5 1016.5 660.3 1017.3 660.3C1016.9 659.9 1016.7 659.5 1017 659.3C1017.3 659.1 1017.9 659.3 1018.4 659.6C1018.5 659.1 1018.9 658.6 1019.2 658.6C1019.5 658.6 1019.8 659 1019.8 659.5C1020.4 659.1 1021.1 658.8 1021.3 658.9C1021.6 659 1021.3 659.5 1020.8 659.9C1021.6 659.7 1022.3 659.8 1022.4 660C1022.4 660.2 1021.8 660.5 1021 660.7C1021.7 661 1022.1 661.4 1021.8 661.6C1021.6 661.8 1020.8 661.8 1020 661.5C1020 661.5 1020 661.5 1019.9 661.5C1020.2 662 1020.1 662.5 1019.8 662.6C1019.5 662.7 1019 662.5 1018.6 662C1018.3 662.5 1017.8 662.9 1017.5 662.9C1017.1 662.9 1017.1 662.4 1017.4 661.8C1016.6 662.1 1015.9 662.2 1015.7 662C1015.6 662 1016.1 661.6 1016.9 661.2Z" fill="white"/>
<path d="M1018.61 660.22C1018.01 660.347 1017.6 660.757 1017.68 661.135C1017.76 661.513 1018.3 661.716 1018.9 661.589C1019.49 661.462 1019.91 661.052 1019.83 660.674C1019.75 660.296 1019.2 660.093 1018.61 660.22Z" fill="#DFD133"/>
<path d="M829.1 655C828.3 654.9 827.8 654.7 827.9 654.5C828 654.3 828.7 654.1 829.5 654.1C829.1 653.7 828.9 653.3 829.2 653.1C829.5 652.9 830.1 653.1 830.6 653.4C830.7 652.9 831.1 652.4 831.4 652.4C831.8 652.4 832 652.8 832 653.3C832.6 652.9 833.3 652.6 833.5 652.7C833.8 652.8 833.5 653.3 833 653.7C833.8 653.5 834.5 653.6 834.6 653.8C834.6 654 834 654.3 833.2 654.5C833.9 654.8 834.3 655.2 834 655.4C833.8 655.6 833 655.6 832.2 655.3C832.2 655.3 832.2 655.3 832.1 655.3C832.4 655.8 832.3 656.3 832 656.4C831.7 656.5 831.2 656.3 830.8 655.8C830.5 656.3 830 656.7 829.7 656.7C829.3 656.7 829.3 656.2 829.6 655.6C828.8 655.9 828.1 656 827.9 655.8C827.8 655.7 828.3 655.3 829.1 655Z" fill="white"/>
<path d="M830.819 654.013C830.225 654.14 829.809 654.55 829.89 654.928C829.971 655.306 830.518 655.509 831.112 655.382C831.706 655.255 832.122 654.845 832.041 654.467C831.96 654.089 831.413 653.886 830.819 654.013Z" fill="#DFD133"/>
</g>
<g opacity="0.6">
<path d="M288.301 631.4C286.901 631 286.101 630.3 286.401 630C286.701 629.6 288.001 629.7 289.401 630C288.801 629.1 288.701 628.4 289.301 628.2C289.901 628 290.901 628.5 291.601 629.4C292.001 628.5 292.801 627.9 293.401 628C294.001 628.1 294.301 628.9 294.001 629.8C295.301 629.3 296.501 629.1 296.901 629.4C297.301 629.7 296.701 630.4 295.601 631C297.101 631.1 298.301 631.4 298.301 631.8C298.301 632.2 297.101 632.5 295.501 632.5C296.601 633.3 297.101 634.1 296.601 634.4C296.101 634.7 294.701 634.3 293.501 633.5L293.401 633.4C293.701 634.4 293.401 635.2 292.701 635.3C292.101 635.4 291.301 634.7 290.901 633.8C290.101 634.6 289.101 635.1 288.501 634.9C287.901 634.7 288.001 633.8 288.801 632.9C287.301 633.1 286.001 632.9 285.801 632.5C285.801 632.1 286.801 631.6 288.301 631.4Z" fill="white"/>
<path d="M291.7 630.44C290.596 630.413 289.688 630.928 289.671 631.59C289.655 632.253 290.537 632.812 291.641 632.839C292.745 632.866 293.654 632.351 293.67 631.689C293.686 631.026 292.804 630.467 291.7 630.44Z" fill="#DFD133"/>
<path d="M232.801 646.9C231.401 646.5 230.601 645.8 230.901 645.5C231.201 645.1 232.501 645.2 233.901 645.5C233.301 644.6 233.201 643.9 233.801 643.7C234.401 643.5 235.401 644 236.101 644.9C236.501 644 237.301 643.4 237.901 643.5C238.501 643.6 238.801 644.4 238.501 645.3C239.801 644.8 241.001 644.6 241.401 644.9C241.801 645.2 241.201 645.9 240.101 646.5C241.601 646.6 242.801 646.9 242.801 647.3C242.801 647.7 241.601 648 240.001 648C241.101 648.8 241.601 649.6 241.101 649.9C240.601 650.2 239.201 649.8 238.001 649L237.901 648.9C238.201 649.9 237.901 650.7 237.201 650.8C236.601 650.9 235.801 650.2 235.401 649.3C234.601 650.1 233.601 650.6 233.001 650.4C232.401 650.2 232.501 649.3 233.301 648.4C231.801 648.6 230.501 648.4 230.301 648C230.401 647.6 231.401 647.2 232.801 646.9Z" fill="white"/>
<path d="M236.171 646.012C235.067 645.984 234.158 646.5 234.142 647.162C234.126 647.825 235.008 648.384 236.112 648.411C237.216 648.438 238.125 647.923 238.141 647.26C238.157 646.598 237.275 646.039 236.171 646.012Z" fill="#DFD133"/>
<path d="M63.5 597.1C62.1 596.7 61.3 596 61.6 595.7C61.9 595.3 63.2 595.4 64.6 595.7C64 594.8 63.9 594.1 64.5 593.9C65.1 593.7 66.1 594.2 66.8 595.1C67.2 594.2 68 593.6 68.6 593.7C69.2 593.8 69.5 594.6 69.2 595.5C70.5 595 71.7 594.8 72.1 595.1C72.5 595.4 71.9 596.1 70.8 596.7C72.3 596.8 73.5 597.1 73.5 597.5C73.5 597.9 72.3 598.2 70.7 598.2C71.8 599 72.3 599.8 71.8 600.1C71.3 600.4 69.9 600 68.7 599.2L68.6 599.1C68.9 600.1 68.6 600.9 67.9 601C67.3 601.1 66.5 600.4 66.1 599.5C65.3 600.3 64.3 600.8 63.7 600.6C63.1 600.4 63.2 599.5 64 598.6C62.5 598.8 61.2 598.6 61 598.2C61 597.8 62 597.3 63.5 597.1Z" fill="white"/>
<path d="M66.7968 596.159C65.6926 596.132 64.7843 596.647 64.768 597.31C64.7517 597.972 65.6337 598.531 66.7379 598.558C67.8421 598.585 68.7505 598.07 68.7668 597.408C68.7831 596.745 67.9011 596.186 66.7968 596.159Z" fill="#DFD133"/>
<path d="M101 617.2C100 616.9 99.4005 616.4 99.6005 616.2C99.8005 615.9 100.7 616 101.8 616.2C101.4 615.6 101.3 615 101.7 614.9C102.1 614.8 102.9 615.1 103.4 615.7C103.7 615.1 104.3 614.6 104.7 614.7C105.2 614.8 105.4 615.3 105.2 616C106.1 615.6 107 615.5 107.3 615.7C107.6 615.9 107.2 616.4 106.3 616.9C107.4 617 108.3 617.2 108.3 617.5C108.3 617.8 107.4 618 106.3 618C107.1 618.6 107.5 619.2 107.1 619.4C106.7 619.6 105.7 619.3 104.9 618.7C104.9 618.7 104.8 618.7 104.8 618.6C105 619.3 104.8 619.9 104.3 620C103.8 620.1 103.3 619.6 103 618.9C102.4 619.5 101.7 619.8 101.3 619.7C100.9 619.6 100.9 618.9 101.5 618.3C100.4 618.4 99.5005 618.3 99.3005 618C99.2005 617.8 99.9005 617.4 101 617.2Z" fill="white"/>
<path d="M103.405 616.574C102.577 616.554 101.896 616.94 101.883 617.437C101.871 617.934 102.533 618.353 103.361 618.374C104.189 618.394 104.87 618.008 104.882 617.511C104.895 617.014 104.233 616.595 103.405 616.574Z" fill="#DFD133"/>
<path d="M143 610.9C142 610.6 141.4 610.1 141.6 609.9C141.8 609.6 142.7 609.7 143.8 609.9C143.4 609.3 143.3 608.7 143.7 608.6C144.1 608.5 144.9 608.8 145.4 609.4C145.7 608.8 146.3 608.3 146.7 608.4C147.2 608.5 147.4 609 147.2 609.7C148.1 609.3 149 609.2 149.3 609.4C149.6 609.6 149.2 610.1 148.3 610.6C149.4 610.7 150.3 610.9 150.3 611.2C150.3 611.5 149.4 611.7 148.3 611.7C149.1 612.3 149.5 612.9 149.1 613.1C148.7 613.3 147.7 613 146.9 612.4C146.9 612.4 146.8 612.4 146.8 612.3C147 613 146.8 613.6 146.3 613.7C145.8 613.8 145.3 613.3 145 612.6C144.4 613.2 143.7 613.5 143.3 613.4C142.9 613.3 142.9 612.6 143.5 612C142.4 612.1 141.5 612 141.3 611.7C141.2 611.4 141.9 611.1 143 610.9Z" fill="white"/>
<path d="M145.458 610.191C144.63 610.171 143.948 610.557 143.936 611.054C143.924 611.551 144.585 611.97 145.414 611.991C146.242 612.011 146.923 611.625 146.935 611.128C146.947 610.631 146.286 610.211 145.458 610.191Z" fill="#DFD133"/>
<path d="M195.3 621.5C194.3 621.2 193.7 620.7 193.9 620.5C194.1 620.2 195 620.3 196.1 620.5C195.7 619.9 195.6 619.3 196 619.2C196.4 619.1 197.2 619.4 197.7 620C198 619.4 198.6 618.9 199 619C199.5 619.1 199.7 619.6 199.5 620.3C200.4 619.9 201.3 619.8 201.6 620C201.9 620.2 201.5 620.7 200.6 621.2C201.7 621.3 202.6 621.5 202.6 621.8C202.6 622.1 201.7 622.3 200.6 622.3C201.4 622.9 201.8 623.5 201.4 623.7C201 623.9 200 623.6 199.2 623C199.2 623 199.1 623 199.1 622.9C199.3 623.6 199.1 624.2 198.6 624.3C198.1 624.4 197.6 623.9 197.3 623.2C196.7 623.8 196 624.1 195.6 624C195.2 623.9 195.2 623.2 195.8 622.6C194.7 622.7 193.8 622.6 193.6 622.3C193.5 622 194.3 621.7 195.3 621.5Z" fill="white"/>
<path d="M197.782 620.806C196.954 620.785 196.273 621.172 196.26 621.669C196.248 622.166 196.91 622.585 197.738 622.605C198.566 622.626 199.247 622.239 199.259 621.742C199.272 621.245 198.61 620.826 197.782 620.806Z" fill="#DFD133"/>
<path d="M172.801 618.2C171.801 617.9 171.201 617.4 171.401 617.2C171.601 616.9 172.501 617 173.601 617.2C173.201 616.6 173.101 616 173.501 615.9C173.901 615.8 174.701 616.1 175.201 616.7C175.501 616.1 176.101 615.6 176.501 615.7C177.001 615.8 177.201 616.3 177.001 617C177.901 616.6 178.801 616.5 179.101 616.7C179.401 616.9 179.001 617.4 178.101 617.9C179.201 618 180.101 618.2 180.101 618.5C180.101 618.8 179.201 619 178.101 619C178.901 619.6 179.301 620.2 178.901 620.4C178.501 620.6 177.501 620.3 176.701 619.7C176.701 619.7 176.601 619.7 176.601 619.6C176.801 620.3 176.601 620.9 176.101 621C175.601 621.1 175.101 620.6 174.801 619.9C174.201 620.5 173.501 620.8 173.101 620.7C172.701 620.6 172.701 619.9 173.301 619.3C172.201 619.4 171.301 619.3 171.101 619C171.101 618.7 171.801 618.4 172.801 618.2Z" fill="white"/>
<path d="M175.229 617.485C174.401 617.465 173.72 617.851 173.708 618.348C173.695 618.845 174.357 619.264 175.185 619.284C176.013 619.305 176.694 618.918 176.707 618.422C176.719 617.925 176.057 617.505 175.229 617.485Z" fill="#DFD133"/>
<path d="M314.2 638.9C313.4 638.6 313 638.3 313.1 638.1C313.2 637.9 314 637.9 314.8 638.1C314.5 637.6 314.4 637.2 314.8 637.1C315.1 637 315.7 637.3 316.1 637.7C316.3 637.2 316.8 636.9 317.1 636.9C317.5 637 317.6 637.4 317.5 637.9C318.2 637.6 318.9 637.5 319.1 637.7C319.3 637.9 319 638.3 318.4 638.6C319.3 638.6 319.9 638.8 319.9 639.1C319.9 639.3 319.2 639.5 318.4 639.5C319 639.9 319.3 640.4 319 640.6C318.7 640.8 317.9 640.5 317.3 640.1C317.3 640.1 317.3 640.1 317.2 640.1C317.4 640.6 317.2 641.1 316.8 641.2C316.4 641.2 316 640.9 315.8 640.4C315.4 640.8 314.8 641.1 314.5 641C314.2 640.9 314.2 640.4 314.6 639.9C313.8 640 313 639.9 312.9 639.7C312.8 639.3 313.3 639 314.2 638.9Z" fill="white"/>
<path d="M316.033 638.393C315.426 638.378 314.926 638.68 314.916 639.066C314.907 639.452 315.392 639.778 315.999 639.793C316.606 639.808 317.106 639.507 317.116 639.12C317.125 638.734 316.641 638.408 316.033 638.393Z" fill="#DFD133"/>
<path d="M118.401 625.2C117.601 624.9 117.201 624.6 117.301 624.4C117.401 624.2 118.201 624.2 119.001 624.4C118.701 623.9 118.601 623.5 119.001 623.4C119.301 623.3 119.901 623.6 120.301 624C120.501 623.5 121.001 623.2 121.301 623.2C121.701 623.3 121.801 623.7 121.701 624.2C122.401 623.9 123.101 623.8 123.301 624C123.501 624.2 123.201 624.6 122.601 624.9C123.501 624.9 124.101 625.1 124.101 625.4C124.101 625.6 123.401 625.8 122.601 625.8C123.201 626.2 123.501 626.7 123.201 626.9C122.901 627.1 122.101 626.8 121.501 626.4C121.501 626.4 121.501 626.4 121.401 626.4C121.601 626.9 121.401 627.4 121.001 627.5C120.601 627.5 120.201 627.2 120.001 626.7C119.601 627.1 119.001 627.4 118.701 627.3C118.401 627.2 118.401 626.7 118.801 626.2C118.001 626.3 117.201 626.2 117.101 626C117.101 625.6 117.601 625.3 118.401 625.2Z" fill="white"/>
<path d="M120.287 624.627C119.68 624.612 119.18 624.913 119.17 625.3C119.161 625.686 119.646 626.012 120.253 626.027C120.86 626.042 121.36 625.74 121.37 625.354C121.379 624.967 120.895 624.642 120.287 624.627Z" fill="#DFD133"/>
<path d="M158.401 633C157.601 632.7 157.201 632.4 157.301 632.2C157.401 632 158.201 632 159.001 632.2C158.701 631.7 158.601 631.3 159.001 631.2C159.301 631.1 159.901 631.4 160.301 631.8C160.501 631.3 161.001 631 161.301 631C161.701 631.1 161.801 631.5 161.701 632C162.401 631.7 163.101 631.6 163.301 631.8C163.501 632 163.201 632.4 162.601 632.7C163.501 632.7 164.101 632.9 164.101 633.2C164.101 633.4 163.401 633.6 162.601 633.6C163.201 634 163.501 634.5 163.201 634.7C162.901 634.9 162.101 634.6 161.501 634.2C161.501 634.2 161.501 634.2 161.401 634.2C161.601 634.7 161.401 635.2 161.001 635.3C160.601 635.3 160.201 635 160.001 634.5C159.601 634.9 159.001 635.2 158.701 635.1C158.401 635 158.401 634.5 158.801 634C158.001 634.1 157.201 634 157.101 633.8C157.001 633.4 157.601 633.2 158.401 633Z" fill="white"/>
<path d="M160.235 632.448C159.628 632.433 159.128 632.734 159.119 633.121C159.109 633.507 159.594 633.833 160.201 633.847C160.808 633.862 161.308 633.561 161.318 633.175C161.327 632.788 160.843 632.463 160.235 632.448Z" fill="#DFD133"/>
<path d="M213.1 623.4C212.3 623.1 211.9 622.8 212 622.6C212.1 622.4 212.9 622.4 213.7 622.6C213.4 622.1 213.3 621.7 213.7 621.6C214 621.5 214.6 621.8 215 622.2C215.2 621.7 215.7 621.4 216 621.4C216.4 621.5 216.5 621.9 216.4 622.4C217.1 622.1 217.8 622 218 622.2C218.2 622.4 217.9 622.8 217.3 623.1C218.2 623.1 218.8 623.3 218.8 623.6C218.8 623.8 218.1 624 217.3 624C217.9 624.4 218.2 624.9 217.9 625.1C217.6 625.3 216.8 625 216.2 624.6C216.2 624.6 216.2 624.6 216.1 624.6C216.3 625.1 216.1 625.6 215.7 625.7C215.3 625.7 214.9 625.4 214.7 624.9C214.3 625.3 213.7 625.6 213.4 625.5C213.1 625.4 213.1 624.9 213.5 624.4C212.7 624.5 211.9 624.4 211.8 624.2C211.7 623.8 212.3 623.5 213.1 623.4Z" fill="white"/>
<path d="M215.011 622.84C214.404 622.825 213.904 623.126 213.894 623.512C213.885 623.899 214.369 624.224 214.977 624.239C215.584 624.254 216.084 623.953 216.093 623.566C216.103 623.18 215.618 622.854 215.011 622.84Z" fill="#DFD133"/>
<path d="M44.1 614.1C43.3 613.8 42.9 613.5 43 613.3C43.1 613.1 43.9 613.1 44.7 613.3C44.4 612.8 44.3 612.4 44.7 612.3C45 612.2 45.6 612.5 46 612.9C46.2 612.4 46.7 612.1 47 612.1C47.4 612.2 47.5 612.6 47.4 613.1C48.1 612.8 48.8 612.7 49 612.9C49.2 613.1 48.9 613.5 48.3 613.8C49.2 613.8 49.8 614 49.8 614.3C49.8 614.5 49.1 614.7 48.3 614.7C48.9 615.1 49.2 615.6 48.9 615.8C48.6 616 47.8 615.7 47.2 615.3C47.2 615.3 47.2 615.3 47.1 615.3C47.3 615.8 47.1 616.3 46.7 616.4C46.3 616.4 45.9 616.1 45.7 615.6C45.3 616 44.7 616.3 44.4 616.2C44.1 616.1 44.1 615.6 44.5 615.1C43.7 615.2 42.9 615.1 42.8 614.9C42.7 614.5 43.3 614.2 44.1 614.1Z" fill="white"/>
<path d="M45.9552 613.581C45.3479 613.566 44.8479 613.867 44.8384 614.254C44.8289 614.64 45.3135 614.966 45.9208 614.981C46.5282 614.996 47.0282 614.694 47.0377 614.308C47.0472 613.922 46.5626 613.596 45.9552 613.581Z" fill="#DFD133"/>
<path d="M29.5004 596.9C28.7004 596.6 28.3004 596.3 28.4004 596.1C28.5004 595.9 29.3004 595.9 30.1004 596.1C29.8004 595.6 29.7004 595.2 30.1004 595.1C30.4004 595 31.0004 595.3 31.4004 595.7C31.6004 595.2 32.1004 594.9 32.4004 594.9C32.8004 595 32.9004 595.4 32.8004 595.9C33.5004 595.6 34.2004 595.5 34.4004 595.7C34.6004 595.9 34.3004 596.3 33.7004 596.6C34.6004 596.6 35.2004 596.8 35.2004 597.1C35.2004 597.3 34.5004 597.5 33.7004 597.5C34.3004 597.9 34.6004 598.4 34.3004 598.6C34.0004 598.8 33.2004 598.5 32.6004 598.1C32.6004 598.1 32.6004 598.1 32.5004 598.1C32.7004 598.6 32.5004 599.1 32.1004 599.2C31.7004 599.2 31.3004 598.9 31.1004 598.4C30.7004 598.8 30.1004 599.1 29.8004 599C29.5004 598.9 29.5004 598.4 29.9004 597.9C29.1004 598 28.3004 597.9 28.2004 597.7C28.1004 597.3 28.7004 597.1 29.5004 596.9Z" fill="white"/>
<path d="M31.3566 596.361C30.7493 596.346 30.2492 596.647 30.2397 597.033C30.2302 597.42 30.7149 597.745 31.3222 597.76C31.9295 597.775 32.4296 597.474 32.4391 597.087C32.4486 596.701 31.9639 596.375 31.3566 596.361Z" fill="#DFD133"/>
<path d="M66.1007 620C65.3007 619.7 64.9007 619.4 65.0007 619.2C65.1007 619 65.9007 619 66.7007 619.2C66.4007 618.7 66.3007 618.3 66.7007 618.2C67.0007 618.1 67.6007 618.4 68.0007 618.8C68.2007 618.3 68.7007 618 69.0007 618C69.4007 618.1 69.5007 618.5 69.4007 619C70.1007 618.7 70.8007 618.6 71.0007 618.8C71.2007 619 70.9007 619.4 70.3007 619.7C71.2007 619.7 71.8007 619.9 71.8007 620.2C71.8007 620.4 71.1007 620.6 70.3007 620.6C70.9007 621 71.2007 621.5 70.9007 621.7C70.6007 621.9 69.8007 621.6 69.2007 621.2C69.2007 621.2 69.2007 621.2 69.1007 621.2C69.3007 621.7 69.1007 622.2 68.7007 622.3C68.3007 622.3 67.9007 622 67.7007 621.5C67.3007 621.9 66.7007 622.2 66.4007 622.1C66.1007 622 66.1007 621.5 66.5007 621C65.7007 621.1 64.9007 621 64.8007 620.8C64.7007 620.4 65.2007 620.1 66.1007 620Z" fill="white"/>
<path d="M67.9464 619.466C67.3391 619.451 66.8391 619.752 66.8296 620.139C66.8201 620.525 67.3047 620.851 67.9121 620.866C68.5194 620.88 69.0194 620.579 69.0289 620.193C69.0384 619.806 68.5538 619.481 67.9464 619.466Z" fill="#DFD133"/>
<path d="M287.1 644.6C286.3 644.3 285.9 644 286 643.8C286.1 643.6 286.9 643.6 287.7 643.8C287.4 643.3 287.3 642.9 287.7 642.8C288 642.7 288.6 643 289 643.4C289.2 642.9 289.7 642.6 290 642.6C290.4 642.7 290.5 643.1 290.4 643.6C291.1 643.3 291.8 643.2 292 643.4C292.2 643.6 291.9 644 291.3 644.3C292.2 644.3 292.8 644.5 292.8 644.8C292.8 645 292.1 645.2 291.3 645.2C291.9 645.6 292.2 646.1 291.9 646.3C291.6 646.5 290.8 646.2 290.2 645.8C290.2 645.8 290.2 645.8 290.1 645.8C290.3 646.3 290.1 646.8 289.7 646.9C289.3 646.9 288.9 646.6 288.7 646.1C288.3 646.5 287.7 646.8 287.4 646.7C287.1 646.6 287.1 646.1 287.5 645.6C286.7 645.7 285.9 645.6 285.8 645.4C285.7 645 286.3 644.8 287.1 644.6Z" fill="white"/>
<path d="M288.946 644.058C288.339 644.043 287.839 644.344 287.83 644.731C287.82 645.117 288.305 645.442 288.912 645.457C289.519 645.472 290.019 645.171 290.029 644.785C290.038 644.398 289.554 644.073 288.946 644.058Z" fill="#DFD133"/>
<path d="M106 594.7C105.2 594.4 104.8 594.1 104.9 593.9C105 593.7 105.8 593.7 106.6 593.9C106.3 593.4 106.2 593 106.6 592.9C106.9 592.8 107.5 593.1 107.9 593.5C108.1 593 108.6 592.7 108.9 592.7C109.3 592.8 109.4 593.2 109.3 593.7C110 593.4 110.7 593.3 110.9 593.5C111.1 593.7 110.8 594.1 110.2 594.4C111.1 594.4 111.7 594.6 111.7 594.9C111.7 595.1 111 595.3 110.2 595.3C110.8 595.7 111.1 596.2 110.8 596.4C110.5 596.6 109.7 596.3 109.1 595.9C109.1 595.9 109.1 595.9 109 595.9C109.2 596.4 109 596.9 108.6 597C108.2 597 107.8 596.7 107.6 596.2C107.2 596.6 106.6 596.9 106.3 596.8C106 596.7 106 596.2 106.4 595.7C105.6 595.8 104.8 595.7 104.7 595.5C104.6 595.1 105.1 594.8 106 594.7Z" fill="white"/>
<path d="M107.847 594.136C107.239 594.122 106.739 594.423 106.73 594.809C106.72 595.196 107.205 595.521 107.812 595.536C108.42 595.551 108.92 595.25 108.929 594.863C108.939 594.477 108.454 594.151 107.847 594.136Z" fill="#DFD133"/>
</g>
<path d="M1174.1 633.9C1170.9 634.7 1167.6 635.6 1164.4 636.4C1060.7 664.1 965.1 711.8 894.7 717.4C826.6 722.9 792.6 729.1 648.1 701.7C568.6 686.6 496.8 673.5 413.3 674.7C269.2 676.8 136.5 722.9 -0.0996094 703.7V980.5L1400 979.5V650.9V617.8C1358.2 614.3 1268.1 610.1 1174.1 633.9Z" fill="url(#paint1_linear_132_1405)"/>
<path d="M382 737.827C386.8 736.427 389.8 734.327 388.9 733.127C388 731.827 383.5 731.827 378.5 732.927C380.7 730.027 380.9 727.227 378.9 726.627C376.9 726.027 373.3 727.727 370.6 730.427C369.2 727.327 366.6 725.127 364.3 725.427C362.1 725.727 361.1 728.327 361.9 731.527C357.6 729.627 353.2 728.927 351.8 730.027C350.4 731.127 352.4 733.527 356.3 735.727C351 735.927 346.8 737.027 346.8 738.427C346.8 739.827 351 740.927 356.3 741.127C352.3 743.727 350.5 746.627 352.3 747.627C354.1 748.627 358.9 747.327 363 744.627C363.1 744.527 363.3 744.427 363.4 744.327C362.3 747.727 363.2 750.627 365.5 750.927C367.7 751.227 370.4 749.027 371.9 745.927C374.6 748.727 378.1 750.427 380.1 749.827C382.3 749.127 381.9 746.127 379.4 742.927C384.7 743.627 389.2 743.227 389.8 741.927C390.5 740.627 387.1 738.927 382 737.827Z" fill="white"/>
<path d="M370.4 742.927C374.321 742.927 377.5 741.002 377.5 738.627C377.5 736.252 374.321 734.327 370.4 734.327C366.479 734.327 363.3 736.252 363.3 738.627C363.3 741.002 366.479 742.927 370.4 742.927Z" fill="#DFD133"/>
<path d="M456.2 712.427C461 711.027 464 708.927 463.1 707.727C462.2 706.427 457.7 706.427 452.7 707.527C454.9 704.627 455.1 701.827 453.1 701.227C451.1 700.627 447.5 702.327 444.8 705.027C443.4 701.927 440.8 699.727 438.5 700.027C436.3 700.327 435.3 702.927 436.1 706.127C431.8 704.227 427.4 703.527 426 704.627C424.6 705.727 426.6 708.127 430.5 710.327C425.2 710.527 421 711.627 421 713.027C421 714.427 425.2 715.527 430.5 715.727C426.5 718.327 424.7 721.227 426.5 722.227C428.3 723.227 433.1 721.927 437.2 719.227C437.3 719.127 437.5 719.027 437.6 718.927C436.5 722.327 437.4 725.227 439.7 725.527C441.9 725.827 444.6 723.627 446.1 720.527C448.8 723.327 452.3 725.027 454.3 724.427C456.5 723.727 456.1 720.727 453.6 717.527C458.9 718.227 463.4 717.827 464 716.527C464.7 715.227 461.2 713.427 456.2 712.427Z" fill="white"/>
<path d="M444.6 717.427C448.521 717.427 451.7 715.502 451.7 713.127C451.7 710.752 448.521 708.827 444.6 708.827C440.679 708.827 437.5 710.752 437.5 713.127C437.5 715.502 440.679 717.427 444.6 717.427Z" fill="#DFD133"/>
<path d="M512.8 733.927C517.6 732.527 520.6 730.427 519.7 729.227C518.8 727.927 514.3 727.927 509.3 729.027C511.5 726.127 511.7 723.327 509.7 722.727C507.7 722.127 504.1 723.827 501.4 726.527C500 723.427 497.4 721.227 495.1 721.527C492.9 721.827 491.9 724.427 492.7 727.627C488.4 725.727 484 725.027 482.6 726.127C481.2 727.227 483.2 729.627 487.1 731.827C481.8 732.027 477.6 733.127 477.6 734.527C477.6 735.927 481.8 737.027 487.1 737.227C483.1 739.827 481.3 742.727 483.1 743.727C484.9 744.727 489.7 743.427 493.8 740.727C493.9 740.627 494.1 740.527 494.2 740.427C493.1 743.827 494 746.727 496.3 747.027C498.5 747.327 501.2 745.127 502.7 742.027C505.4 744.827 508.9 746.527 510.9 745.927C513.1 745.227 512.7 742.227 510.2 739.027C515.5 739.727 520 739.327 520.6 738.027C521.3 736.727 517.9 735.027 512.8 733.927Z" fill="white"/>
<path d="M501.2 739.027C505.121 739.027 508.3 737.102 508.3 734.727C508.3 732.352 505.121 730.427 501.2 730.427C497.278 730.427 494.1 732.352 494.1 734.727C494.1 737.102 497.278 739.027 501.2 739.027Z" fill="#DFD133"/>
<path d="M446.5 753.028C450 752.028 452.2 750.528 451.5 749.628C450.8 748.728 447.6 748.728 443.9 749.528C445.5 747.428 445.7 745.428 444.2 744.928C442.7 744.428 440.2 745.728 438.2 747.728C437.2 745.428 435.3 743.828 433.7 744.028C432.1 744.228 431.4 746.128 432 748.428C428.9 747.028 425.7 746.528 424.7 747.328C423.7 748.128 425.1 749.828 428 751.428C424.1 751.528 421.1 752.328 421.1 753.328C421.1 754.328 424.1 755.128 428 755.228C425.1 757.128 423.8 759.228 425.1 759.928C426.4 760.628 429.9 759.728 432.9 757.728C433 757.628 433.1 757.628 433.2 757.528C432.4 760.028 433 762.128 434.7 762.328C436.3 762.528 438.3 760.928 439.3 758.728C441.2 760.728 443.8 762.028 445.2 761.528C446.8 761.028 446.5 758.828 444.7 756.528C448.5 757.028 451.8 756.728 452.2 755.828C452.7 755.028 450.2 753.828 446.5 753.028Z" fill="white"/>
<path d="M438.1 756.628C440.917 756.628 443.2 755.24 443.2 753.528C443.2 751.816 440.917 750.428 438.1 750.428C435.283 750.428 433 751.816 433 753.528C433 755.24 435.283 756.628 438.1 756.628Z" fill="#DFD133"/>
<path d="M300.7 727.327C304.2 726.327 306.4 724.827 305.7 723.927C305 723.027 301.8 723.027 298.1 723.827C299.7 721.727 299.9 719.727 298.4 719.227C296.9 718.727 294.4 720.027 292.4 722.027C291.4 719.727 289.5 718.127 287.9 718.327C286.3 718.527 285.6 720.427 286.2 722.727C283.1 721.327 279.9 720.827 278.9 721.627C277.9 722.427 279.3 724.127 282.2 725.727C278.3 725.827 275.3 726.627 275.3 727.627C275.3 728.627 278.3 729.427 282.2 729.527C279.3 731.427 278 733.527 279.3 734.227C280.6 734.927 284.1 734.027 287.1 732.027C287.2 731.927 287.3 731.927 287.4 731.827C286.6 734.327 287.2 736.427 288.9 736.627C290.5 736.827 292.5 735.227 293.5 733.027C295.4 735.027 298 736.327 299.4 735.827C301 735.327 300.7 733.127 298.9 730.827C302.7 731.327 306 731.027 306.4 730.127C306.9 729.327 304.3 728.127 300.7 727.327Z" fill="white"/>
<path d="M292.3 731.027C295.117 731.027 297.4 729.639 297.4 727.927C297.4 726.215 295.117 724.827 292.3 724.827C289.484 724.827 287.2 726.215 287.2 727.927C287.2 729.639 289.484 731.027 292.3 731.027Z" fill="#DFD133"/>
<path d="M263 756.428C266.5 755.428 268.7 753.927 268 753.027C267.3 752.127 264.1 752.128 260.4 752.928C262 750.828 262.2 748.828 260.7 748.328C259.2 747.828 256.7 749.128 254.7 751.128C253.7 748.828 251.8 747.228 250.2 747.428C248.6 747.628 247.9 749.528 248.5 751.828C245.4 750.428 242.2 749.927 241.2 750.727C240.2 751.527 241.6 753.228 244.5 754.828C240.6 754.928 237.6 755.727 237.6 756.727C237.6 757.727 240.6 758.528 244.5 758.628C241.6 760.528 240.3 762.628 241.6 763.328C242.9 764.028 246.4 763.128 249.4 761.128C249.5 761.028 249.6 761.028 249.7 760.928C248.9 763.428 249.5 765.527 251.2 765.727C252.8 765.927 254.8 764.328 255.8 762.128C257.7 764.128 260.3 765.428 261.7 764.928C263.3 764.428 263 762.228 261.2 759.928C265 760.428 268.3 760.127 268.7 759.227C269.2 758.427 266.7 757.128 263 756.428Z" fill="white"/>
<path d="M254.6 760.028C257.417 760.028 259.7 758.64 259.7 756.928C259.7 755.216 257.417 753.828 254.6 753.828C251.783 753.828 249.5 755.216 249.5 756.928C249.5 758.64 251.783 760.028 254.6 760.028Z" fill="#DFD133"/>
<path d="M196.1 750.227C199.6 749.227 201.8 747.727 201.1 746.827C200.4 745.927 197.2 745.927 193.5 746.727C195.1 744.627 195.3 742.627 193.8 742.127C192.3 741.627 189.8 742.927 187.8 744.927C186.8 742.627 184.9 741.027 183.3 741.227C181.7 741.427 181 743.327 181.6 745.627C178.5 744.227 175.3 743.727 174.3 744.527C173.3 745.327 174.7 747.027 177.6 748.627C173.7 748.727 170.7 749.527 170.7 750.527C170.7 751.527 173.7 752.327 177.6 752.427C174.7 754.327 173.4 756.427 174.7 757.127C176 757.827 179.5 756.927 182.5 754.927C182.6 754.827 182.7 754.827 182.8 754.727C182 757.227 182.6 759.327 184.3 759.527C185.9 759.727 187.9 758.127 188.9 755.927C190.8 757.927 193.4 759.227 194.8 758.727C196.4 758.227 196.1 756.027 194.3 753.727C198.1 754.227 201.4 753.927 201.8 753.027C202.3 752.227 199.8 750.927 196.1 750.227Z" fill="white"/>
<path d="M187.701 753.827C190.517 753.827 192.801 752.439 192.801 750.727C192.801 749.015 190.517 747.627 187.701 747.627C184.884 747.627 182.601 749.015 182.601 750.727C182.601 752.439 184.884 753.827 187.701 753.827Z" fill="#DFD133"/>
<path d="M326 762.927C328.7 762.127 330.3 761.027 329.8 760.327C329.3 759.627 326.8 759.627 324 760.227C325.2 758.627 325.4 757.027 324.2 756.727C323.1 756.427 321.1 757.327 319.6 758.827C318.8 757.127 317.3 755.827 316.1 756.027C314.9 756.227 314.3 757.627 314.8 759.427C312.4 758.327 310 758.027 309.2 758.527C308.4 759.127 309.5 760.427 311.7 761.727C308.7 761.827 306.4 762.427 306.4 763.227C306.4 764.027 308.7 764.627 311.7 764.727C309.5 766.227 308.5 767.827 309.5 768.327C310.5 768.927 313.2 768.127 315.5 766.627C315.6 766.627 315.7 766.527 315.7 766.527C315.1 768.427 315.6 770.027 316.9 770.227C318.1 770.427 319.6 769.227 320.5 767.427C322 769.027 323.9 769.927 325.1 769.627C326.3 769.227 326.1 767.527 324.7 765.727C327.6 766.127 330.1 765.927 330.5 765.127C330.7 764.527 328.8 763.527 326 762.927Z" fill="white"/>
<path d="M319.5 765.827C321.709 765.827 323.5 764.753 323.5 763.427C323.5 762.102 321.709 761.027 319.5 761.027C317.291 761.027 315.5 762.102 315.5 763.427C315.5 764.753 317.291 765.827 319.5 765.827Z" fill="#DFD133"/>
<path d="M608.3 725.328C611 724.528 612.6 723.428 612.1 722.728C611.6 722.028 609.1 722.028 606.3 722.628C607.5 721.028 607.7 719.428 606.5 719.128C605.4 718.828 603.4 719.728 601.9 721.228C601.1 719.528 599.6 718.228 598.4 718.428C597.2 718.628 596.6 720.028 597.1 721.828C594.7 720.728 592.3 720.428 591.5 720.928C590.7 721.528 591.8 722.828 594 724.128C591 724.228 588.7 724.828 588.7 725.628C588.7 726.428 591 727.028 594 727.128C591.8 728.628 590.8 730.228 591.8 730.728C592.8 731.328 595.5 730.528 597.8 729.028C597.9 729.028 598 728.928 598 728.928C597.4 730.828 597.9 732.428 599.2 732.628C600.4 732.828 601.9 731.628 602.8 729.828C604.3 731.428 606.2 732.328 607.4 732.028C608.6 731.628 608.4 729.928 607 728.128C609.9 728.528 612.4 728.328 612.8 727.528C613.1 726.928 611.1 725.928 608.3 725.328Z" fill="white"/>
<path d="M601.8 728.228C604.009 728.228 605.8 727.153 605.8 725.828C605.8 724.502 604.009 723.428 601.8 723.428C599.591 723.428 597.8 724.502 597.8 725.828C597.8 727.153 599.591 728.228 601.8 728.228Z" fill="#DFD133"/>
<path d="M567.9 765.527C570.6 764.727 572.2 763.627 571.7 762.927C571.2 762.227 568.7 762.227 565.9 762.827C567.1 761.227 567.3 759.627 566.1 759.327C565 759.027 563 759.927 561.5 761.427C560.7 759.727 559.2 758.427 558 758.627C556.8 758.827 556.2 760.227 556.7 762.027C554.3 760.927 551.9 760.627 551.1 761.127C550.3 761.727 551.4 763.027 553.6 764.327C550.6 764.427 548.3 765.027 548.3 765.827C548.3 766.627 550.6 767.227 553.6 767.327C551.4 768.827 550.4 770.427 551.4 770.927C552.4 771.527 555.1 770.727 557.4 769.227C557.5 769.227 557.6 769.127 557.6 769.127C557 771.027 557.5 772.627 558.8 772.827C560 773.027 561.5 771.827 562.4 770.027C563.9 771.627 565.8 772.527 567 772.227C568.2 771.827 568 770.127 566.6 768.327C569.5 768.727 572 768.527 572.4 767.727C572.6 767.127 570.7 766.127 567.9 765.527Z" fill="white"/>
<path d="M561.399 768.427C563.609 768.427 565.399 767.353 565.399 766.027C565.399 764.702 563.609 763.627 561.399 763.627C559.19 763.627 557.399 764.702 557.399 766.027C557.399 767.353 559.19 768.427 561.399 768.427Z" fill="#DFD133"/>
<path d="M131.6 776.727C134.3 775.927 135.9 774.827 135.4 774.127C134.9 773.427 132.4 773.427 129.6 774.027C130.8 772.427 131 770.827 129.8 770.527C128.7 770.227 126.7 771.127 125.2 772.627C124.4 770.927 122.9 769.627 121.7 769.827C120.5 770.027 119.9 771.427 120.4 773.227C118 772.127 115.6 771.827 114.8 772.327C114 772.927 115.1 774.227 117.3 775.527C114.3 775.627 112 776.227 112 777.027C112 777.827 114.3 778.427 117.3 778.527C115.1 780.027 114.1 781.627 115.1 782.127C116.1 782.727 118.8 781.927 121.1 780.427C121.2 780.427 121.3 780.327 121.3 780.327C120.7 782.227 121.2 783.827 122.5 784.027C123.7 784.227 125.2 783.027 126.1 781.227C127.6 782.827 129.5 783.727 130.7 783.427C131.9 783.027 131.7 781.327 130.3 779.527C133.2 779.927 135.7 779.727 136.1 778.927C136.3 778.227 134.4 777.327 131.6 776.727Z" fill="white"/>
<path d="M125.1 779.528C127.309 779.528 129.1 778.453 129.1 777.128C129.1 775.802 127.309 774.728 125.1 774.728C122.89 774.728 121.1 775.802 121.1 777.128C121.1 778.453 122.89 779.528 125.1 779.528Z" fill="#DFD133"/>
<path d="M696.3 762.328C699 761.528 700.6 760.428 700.1 759.728C699.6 759.028 697.1 759.028 694.3 759.628C695.5 758.028 695.7 756.428 694.5 756.128C693.4 755.828 691.4 756.728 689.9 758.228C689.1 756.528 687.6 755.228 686.4 755.428C685.2 755.628 684.6 757.028 685.1 758.828C682.7 757.728 680.3 757.428 679.5 757.928C678.7 758.528 679.8 759.828 682 761.128C679 761.228 676.7 761.828 676.7 762.628C676.7 763.428 679 764.028 682 764.128C679.8 765.628 678.8 767.228 679.8 767.728C680.8 768.328 683.5 767.528 685.8 766.028C685.9 766.028 686 765.928 686 765.928C685.4 767.828 685.9 769.428 687.2 769.628C688.4 769.828 689.9 768.628 690.8 766.828C692.3 768.428 694.2 769.328 695.4 769.028C696.6 768.628 696.4 766.928 695 765.128C697.9 765.528 700.4 765.328 700.8 764.528C701 763.928 699.1 762.928 696.3 762.328Z" fill="white"/>
<path d="M689.8 765.228C692.009 765.228 693.8 764.153 693.8 762.828C693.8 761.502 692.009 760.428 689.8 760.428C687.591 760.428 685.8 761.502 685.8 762.828C685.8 764.153 687.591 765.228 689.8 765.228Z" fill="#DFD133"/>
<path d="M1286.3 687.927C1291.1 686.527 1294.1 684.427 1293.2 683.227C1292.3 681.927 1287.8 681.927 1282.8 683.027C1285 680.127 1285.2 677.327 1283.2 676.727C1281.2 676.127 1277.6 677.827 1274.9 680.527C1273.5 677.427 1270.9 675.227 1268.6 675.527C1266.4 675.827 1265.4 678.427 1266.2 681.627C1261.9 679.727 1257.5 679.027 1256.1 680.127C1254.7 681.227 1256.7 683.627 1260.6 685.827C1255.3 686.027 1251.1 687.127 1251.1 688.527C1251.1 689.927 1255.3 691.027 1260.6 691.227C1256.6 693.827 1254.8 696.727 1256.6 697.727C1258.4 698.727 1263.2 697.427 1267.3 694.727C1267.4 694.627 1267.6 694.527 1267.7 694.427C1266.6 697.827 1267.5 700.727 1269.8 701.027C1272 701.327 1274.7 699.127 1276.2 696.027C1278.9 698.827 1282.4 700.527 1284.4 699.927C1286.6 699.227 1286.2 696.227 1283.7 693.027C1289 693.727 1293.5 693.327 1294.1 692.027C1294.8 690.727 1291.4 688.927 1286.3 687.927Z" fill="white"/>
<path d="M1274.7 693.027C1278.62 693.027 1281.8 691.102 1281.8 688.727C1281.8 686.352 1278.62 684.427 1274.7 684.427C1270.78 684.427 1267.6 686.352 1267.6 688.727C1267.6 691.102 1270.78 693.027 1274.7 693.027Z" fill="#DFD133"/>
<path d="M1360.5 662.427C1365.3 661.027 1368.3 658.927 1367.4 657.727C1366.5 656.427 1362 656.427 1357 657.527C1359.2 654.627 1359.4 651.827 1357.4 651.227C1355.4 650.627 1351.8 652.327 1349.1 655.027C1347.7 651.927 1345.1 649.727 1342.8 650.027C1340.6 650.327 1339.6 652.927 1340.4 656.127C1336.1 654.227 1331.7 653.527 1330.3 654.627C1328.9 655.727 1330.9 658.127 1334.8 660.327C1329.5 660.527 1325.3 661.627 1325.3 663.027C1325.3 664.427 1329.5 665.527 1334.8 665.727C1330.8 668.327 1329 671.227 1330.8 672.227C1332.6 673.227 1337.4 671.927 1341.5 669.227C1341.6 669.127 1341.8 669.027 1341.9 668.927C1340.8 672.327 1341.7 675.227 1344 675.527C1346.2 675.827 1348.9 673.627 1350.4 670.527C1353.1 673.327 1356.6 675.027 1358.6 674.427C1360.8 673.727 1360.4 670.727 1357.9 667.527C1363.2 668.227 1367.7 667.827 1368.3 666.527C1369 665.227 1365.5 663.527 1360.5 662.427Z" fill="white"/>
<path d="M1348.9 667.527C1352.82 667.527 1356 665.602 1356 663.227C1356 660.852 1352.82 658.927 1348.9 658.927C1344.98 658.927 1341.8 660.852 1341.8 663.227C1341.8 665.602 1344.98 667.527 1348.9 667.527Z" fill="#DFD133"/>
<path d="M1205 677.428C1208.5 676.428 1210.7 674.928 1210 674.028C1209.3 673.128 1206.1 673.128 1202.4 673.928C1204 671.828 1204.2 669.828 1202.7 669.328C1201.2 668.828 1198.7 670.128 1196.7 672.128C1195.7 669.828 1193.8 668.228 1192.2 668.428C1190.6 668.628 1189.9 670.528 1190.5 672.828C1187.4 671.428 1184.2 670.927 1183.2 671.727C1182.2 672.527 1183.6 674.228 1186.5 675.828C1182.6 675.928 1179.6 676.727 1179.6 677.727C1179.6 678.727 1182.6 679.528 1186.5 679.628C1183.6 681.528 1182.3 683.628 1183.6 684.328C1184.9 685.028 1188.4 684.128 1191.4 682.128C1191.5 682.028 1191.6 682.028 1191.7 681.928C1190.9 684.428 1191.5 686.527 1193.2 686.727C1194.8 686.927 1196.8 685.328 1197.8 683.128C1199.7 685.128 1202.3 686.428 1203.7 685.928C1205.3 685.428 1205 683.228 1203.2 680.928C1207 681.428 1210.3 681.127 1210.7 680.227C1211.2 679.427 1208.6 678.128 1205 677.428Z" fill="white"/>
<path d="M1196.6 681.028C1199.42 681.028 1201.7 679.64 1201.7 677.928C1201.7 676.216 1199.42 674.828 1196.6 674.828C1193.78 674.828 1191.5 676.216 1191.5 677.928C1191.5 679.64 1193.78 681.028 1196.6 681.028Z" fill="#DFD133"/>
<path d="M1167.3 706.428C1170.8 705.428 1173 703.928 1172.3 703.028C1171.6 702.128 1168.4 702.128 1164.7 702.928C1166.3 700.828 1166.5 698.828 1165 698.328C1163.5 697.828 1161 699.128 1159 701.128C1158 698.828 1156.1 697.228 1154.5 697.428C1152.9 697.628 1152.2 699.528 1152.8 701.828C1149.7 700.428 1146.5 699.927 1145.5 700.727C1144.5 701.527 1145.9 703.228 1148.8 704.828C1144.9 704.928 1141.9 705.727 1141.9 706.727C1141.9 707.727 1144.9 708.528 1148.8 708.628C1145.9 710.528 1144.6 712.628 1145.9 713.328C1147.2 714.028 1150.7 713.128 1153.7 711.128C1153.8 711.028 1153.9 711.028 1154 710.928C1153.2 713.428 1153.8 715.527 1155.5 715.727C1157.1 715.927 1159.1 714.328 1160.1 712.128C1162 714.128 1164.6 715.428 1166 714.928C1167.6 714.428 1167.3 712.228 1165.5 709.928C1169.3 710.428 1172.6 710.127 1173 709.227C1173.5 708.527 1171 707.228 1167.3 706.428Z" fill="white"/>
<path d="M1158.9 710.128C1161.72 710.128 1164 708.74 1164 707.028C1164 705.316 1161.72 703.928 1158.9 703.928C1156.08 703.928 1153.8 705.316 1153.8 707.028C1153.8 708.74 1156.08 710.128 1158.9 710.128Z" fill="#DFD133"/>
<path d="M1100.4 700.227C1103.9 699.227 1106.1 697.727 1105.4 696.827C1104.7 695.927 1101.5 695.927 1097.8 696.727C1099.4 694.627 1099.6 692.627 1098.1 692.127C1096.6 691.627 1094.1 692.927 1092.1 694.927C1091.1 692.627 1089.2 691.027 1087.6 691.227C1086 691.427 1085.3 693.327 1085.9 695.627C1082.8 694.227 1079.6 693.727 1078.6 694.527C1077.6 695.327 1079 697.027 1081.9 698.627C1078 698.727 1075 699.527 1075 700.527C1075 701.527 1078 702.327 1081.9 702.427C1079 704.327 1077.7 706.427 1079 707.127C1080.3 707.827 1083.8 706.927 1086.8 704.927C1086.9 704.827 1087 704.827 1087.1 704.727C1086.3 707.227 1086.9 709.327 1088.6 709.527C1090.2 709.727 1092.2 708.127 1093.2 705.927C1095.1 707.927 1097.7 709.227 1099.1 708.727C1100.7 708.227 1100.4 706.027 1098.6 703.727C1102.4 704.227 1105.7 703.927 1106.1 703.027C1106.6 702.327 1104.1 701.027 1100.4 700.227Z" fill="white"/>
<path d="M1092 703.928C1094.82 703.928 1097.1 702.54 1097.1 700.828C1097.1 699.115 1094.82 697.728 1092 697.728C1089.18 697.728 1086.9 699.115 1086.9 700.828C1086.9 702.54 1089.18 703.928 1092 703.928Z" fill="#DFD133"/>
<path d="M1230.3 713.027C1233 712.227 1234.6 711.127 1234.1 710.427C1233.6 709.727 1231.1 709.727 1228.3 710.327C1229.5 708.727 1229.7 707.127 1228.5 706.827C1227.4 706.527 1225.4 707.427 1223.9 708.927C1223.1 707.227 1221.6 705.927 1220.4 706.127C1219.2 706.327 1218.6 707.727 1219.1 709.527C1216.7 708.427 1214.3 708.127 1213.5 708.627C1212.7 709.227 1213.8 710.527 1216 711.827C1213 711.927 1210.7 712.527 1210.7 713.327C1210.7 714.127 1213 714.727 1216 714.827C1213.8 716.327 1212.8 717.927 1213.8 718.427C1214.8 719.027 1217.5 718.227 1219.8 716.727C1219.9 716.727 1220 716.627 1220 716.627C1219.4 718.527 1219.9 720.127 1221.2 720.327C1222.4 720.527 1223.9 719.327 1224.8 717.527C1226.3 719.127 1228.2 720.027 1229.4 719.727C1230.6 719.327 1230.4 717.627 1229 715.827C1231.9 716.227 1234.4 716.027 1234.8 715.227C1235 714.627 1233.1 713.627 1230.3 713.027Z" fill="white"/>
<path d="M1223.8 715.827C1226.01 715.827 1227.8 714.753 1227.8 713.427C1227.8 712.102 1226.01 711.027 1223.8 711.027C1221.59 711.027 1219.8 712.102 1219.8 713.427C1219.8 714.753 1221.59 715.827 1223.8 715.827Z" fill="#DFD133"/>
<path d="M1306.9 643.92C1309.6 643.12 1311.2 642.02 1310.7 641.32C1310.2 640.62 1307.7 640.62 1304.9 641.22C1306.1 639.62 1306.3 638.02 1305.1 637.72C1304 637.42 1302 638.32 1300.5 639.82C1299.7 638.12 1298.2 636.82 1297 637.02C1295.8 637.22 1295.2 638.62 1295.7 640.42C1293.3 639.32 1290.9 639.02 1290.1 639.52C1289.3 640.12 1290.4 641.42 1292.6 642.72C1289.6 642.82 1287.3 643.42 1287.3 644.22C1287.3 645.02 1289.6 645.62 1292.6 645.72C1290.4 647.22 1289.4 648.82 1290.4 649.32C1291.4 649.92 1294.1 649.12 1296.4 647.62C1296.5 647.62 1296.6 647.52 1296.6 647.52C1296 649.42 1296.5 651.02 1297.8 651.22C1299 651.42 1300.5 650.22 1301.4 648.42C1302.9 650.02 1304.8 650.92 1306 650.62C1307.2 650.22 1307 648.52 1305.6 646.72C1308.5 647.12 1311 646.92 1311.4 646.12C1311.6 645.52 1309.7 644.52 1306.9 643.92Z" fill="white"/>
<path d="M1300.4 646.82C1302.61 646.82 1304.4 645.746 1304.4 644.42C1304.4 643.095 1302.61 642.021 1300.4 642.021C1298.19 642.021 1296.4 643.095 1296.4 644.42C1296.4 645.746 1298.19 646.82 1300.4 646.82Z" fill="#DFD133"/>
</g>
<defs>
<linearGradient id="paint0_linear_132_1405" x1="582.222" y1="570.739" x2="582.222" y2="757.253" gradientUnits="userSpaceOnUse">
<stop stop-color="#BDEA86"/>
<stop offset="1" stop-color="#C7EA86"/>
</linearGradient>
<linearGradient id="paint1_linear_132_1405" x1="700" y1="604.942" x2="700" y2="906.77" gradientUnits="userSpaceOnUse">
<stop stop-color="#ACEA86"/>
<stop offset="1" stop-color="#B8EA86"/>
</linearGradient>
<clipPath id="clip0_132_1405">
<rect width="1400" height="980" fill="white"/>
</clipPath>
</defs>
</svg>
